<?xml version="1.0" encoding="UTF-8"?>
<svg version="1.1" xmlns="http://www.w3.org/2000/svg" width="800" height="927">
<path d="M0 0 C1.72295532 1.43752734 3.46030808 2.85512223 5.20263672 4.26904297 C12.93478148 10.62727521 20.080666 17.56290741 27.17529297 24.61669922 C28.09455566 25.52669678 29.01381836 26.43669434 29.9609375 27.37426758 C36.02087233 33.4621208 41.50519521 39.84617467 46.86279297 46.55419922 C47.73793084 47.59345316 48.61805781 48.62857123 49.50732422 49.65576172 C69.7658957 73.23600888 108.86279297 122.7070094 108.86279297 154.55419922 C108.20279297 154.55419922 107.54279297 154.55419922 106.86279297 154.55419922 C105.45483398 153.1315918 105.45483398 153.1315918 103.80419922 151.13623047 C93.28810862 138.78369522 81.54598005 127.36466556 68.47167969 117.75292969 C66.85873169 116.55117329 65.28214453 115.31321434 63.71044922 114.05810547 C49.43623565 102.69979604 33.75827305 93.44132232 17.86279297 84.55419922 C17.13463379 84.14347168 16.40647461 83.73274414 15.65625 83.30957031 C-59.76066555 41.06725104 -151.31886982 24.58017631 -384.77783203 45.65185547 C-432.91817242 59.57038247 -479.32575935 79.16995689 -520.13720703 108.55419922 C-520.81267578 109.03888672 -521.48814453 109.52357422 -522.18408203 110.02294922 C-530.40382859 115.95599937 -538.15669468 122.14014304 -545.53173828 129.09716797 C-547.75062799 131.18964417 -550.00691304 133.19837331 -552.32470703 135.17919922 C-559.15550646 141.11532013 -565.36216365 147.59453156 -571.13720703 154.55419922 C-572.39031488 150.79487569 -571.70485684 149.86191634 -570.18017578 146.27685547 C-569.732146 145.21587646 -569.28411621 144.15489746 -568.82250977 143.06176758 C-568.32823486 141.92489502 -567.83395996 140.78802246 -567.32470703 139.61669922 C-566.57072632 137.86401733 -566.57072632 137.86401733 -565.80151367 136.07592773 C-549.39025229 98.32925354 -527.13881118 63.72128222 -498.99267578 33.63232422 C-496.56407106 31.03133587 -494.2164026 28.36990059 -491.88720703 25.67919922 C-488.85497654 22.23974769 -485.62505719 19.24842703 -482.12548828 16.29248047 C-480.08422331 14.5078775 -478.21057828 12.62652452 -476.32470703 10.67919922 C-471.58580957 5.89455951 -466.42669853 1.7100082 -461.13720703 -2.44580078 C-460.52200195 -2.93209961 -459.90679687 -3.41839844 -459.27294922 -3.91943359 C-448.59089798 -12.33384545 -437.59247542 -20.12022508 -426.13720703 -27.44580078 C-425.53827637 -27.83155273 -424.9393457 -28.21730469 -424.32226562 -28.61474609 C-405.76937875 -40.46606025 -385.6766641 -50.55188912 -365.13720703 -58.44580078 C-363.88109619 -58.9357251 -363.88109619 -58.9357251 -362.59960938 -59.43554688 C-330.28284815 -71.95432926 -296.62589794 -79.31330163 -262.13720703 -82.44580078 C-261.04690186 -82.55166504 -261.04690186 -82.55166504 -259.93457031 -82.65966797 C-167.23760858 -91.43488749 -70.96885157 -59.42862175 0 0 Z " fill="#F37625" transform="translate(630.13720703125,171.44580078125)"/>
<path d="M0 0 C4.38640737 3.52819724 8.18920397 7.23152949 11.9375 11.4375 C15.4340045 15.34535797 18.96957647 18.922322 22.984375 22.2890625 C24.35943988 23.45626874 25.70265124 24.66179942 27.015625 25.8984375 C89.61849879 84.78016145 180.25598927 112.08324671 263.5 123.6875 C264.22508759 123.79050415 264.95017517 123.8935083 265.69723511 123.99963379 C289.68470892 127.37320773 313.70320108 128.38443806 337.90860748 128.31785583 C339.97461632 128.31240202 342.04061365 128.31004414 344.10662842 128.3079834 C365.53347832 128.27471949 386.71776482 127.58000186 408 125 C409.22444824 124.86078125 410.44889648 124.7215625 411.71044922 124.578125 C505.57692075 113.76038038 600.24988324 78.99853518 670.0625 10.0625 C670.61123779 9.51851562 671.15997559 8.97453125 671.7253418 8.4140625 C674.37969616 5.7484908 676.84809303 3.09010862 679 0 C679.66 0.33 680.32 0.66 681 1 C660.44528187 55.10727272 627.65999646 107.01740149 583.35546875 144.98046875 C581.57321733 146.50853506 579.80786565 148.05634156 578.05078125 149.61328125 C518.12147102 202.41219197 435.49340521 236.6420903 355.2734375 237.23828125 C354.17946655 237.2480751 353.08549561 237.25786896 351.95837402 237.26795959 C263.01439702 237.89993658 176.57133045 212.43812093 108 154 C106.93657318 153.12194115 105.87274736 152.24436538 104.80859375 151.3671875 C96.51657826 144.44380225 88.7771409 136.98995878 81.125 129.375 C80.63890259 128.89407898 80.15280518 128.41315796 79.65197754 127.91766357 C72.97020889 121.29209883 66.86674742 114.35740464 61 107 C60.12495786 105.96066545 59.24483227 104.92554391 58.35546875 103.8984375 C37.11761002 79.17833526 20.57770385 50.14498719 7.3125 20.5 C6.8071875 19.37271484 6.301875 18.24542969 5.78125 17.08398438 C3.30960911 11.43597854 1.25362226 6.04084646 0 0 Z " fill="#F37625" transform="translate(58,568)"/>
<path d="M0 0 C6.96132869 5.61304655 12.71052694 12.01300986 17.29052734 19.72021484 C17.74943359 20.48591797 18.20833984 21.25162109 18.68115234 22.04052734 C27.6375826 38.38871029 29.44478281 59.03310748 24.22802734 76.90771484 C20.41295917 88.65945037 13.9682317 97.99683836 5.29052734 106.72021484 C4.40494141 107.65800781 4.40494141 107.65800781 3.50146484 108.61474609 C-9.62937262 121.42743551 -28.98890242 126.09254979 -46.73291016 125.93505859 C-65.90835494 124.89905716 -82.43337048 116.36784973 -95.70947266 102.72021484 C-108.52437661 87.20052584 -114.07899275 68.68379272 -112.70947266 48.72021484 C-110.2716979 30.69603773 -101.93316695 13.41410507 -87.70947266 1.72021484 C-61.65225457 -17.25580505 -26.47393288 -19.81953102 0 0 Z " fill="#9E9E9E" transform="translate(171.70947265625,796.27978515625)"/>
<path d="M0 0 C11.03395383 8.50003248 19.86613831 21.34987703 21.82421875 35.38671875 C22.98677859 52.67010837 20.70391689 68.23850388 9.15771484 81.80664062 C4.11094054 87.42933888 -1.19384115 91.66909029 -8 95 C-9.10794922 95.58007812 -9.10794922 95.58007812 -10.23828125 96.171875 C-23.2732405 102.56201488 -38.30775641 102.5497099 -51.90625 98.03515625 C-67.2085268 92.17848588 -77.66442859 82.45930621 -84.48828125 67.65625 C-90.21386869 53.80831758 -90.40295537 40.25868109 -86 26 C-79.87603096 11.42860483 -69.51381071 -0.1851337 -54.77734375 -6.34765625 C-36.04146671 -12.8251156 -16.55197816 -11.30378996 0 0 Z " fill="#757576" transform="translate(697,22)"/>
<path d="M0 0 C10.78688894 8.08497071 16.77394448 22.86242282 19.578125 35.6328125 C22.23192365 56.8140573 19.79458433 77.99773076 7.0859375 95.66015625 C-0.81299625 105.085378 -11.9527764 111.43717181 -24 114 C-39.1876683 115.16927466 -51.90067571 114.75458446 -64.02734375 104.78125 C-66.08381537 102.92431721 -68.0407559 100.9592441 -70 99 C-70.33 119.46 -70.66 139.92 -71 161 C-78.26 161 -85.52 161 -93 161 C-93.33 105.56 -93.66 50.12 -94 -7 C-87.4 -7 -80.8 -7 -74 -7 C-72.84429296 -3.53287889 -72.67164707 -0.4585044 -72.4375 3.1875 C-72.31181641 5.09595703 -72.31181641 5.09595703 -72.18359375 7.04296875 C-72.12300781 8.01878906 -72.06242187 8.99460937 -72 10 C-71.38125 9.23816406 -71.38125 9.23816406 -70.75 8.4609375 C-52.50430091 -13.28728418 -23.06584013 -16.01514664 0 0 Z M-65.484375 25.13671875 C-70.80909655 34.11044065 -71.3436351 43.04414459 -71.3125 53.3125 C-71.32861328 54.36373047 -71.34472656 55.41496094 -71.36132812 56.49804688 C-71.3691238 69.1816117 -69.01212507 78.79914279 -60.11328125 87.9375 C-52.81197057 94.82282245 -45.01178175 97.19996901 -35 97 C-26.97748081 95.95534832 -20.87974669 93.57584967 -15 88 C-14.45730469 87.49726563 -13.91460937 86.99453125 -13.35546875 86.4765625 C-3.87170281 76.63265355 -1.44823163 61.93089026 -1.69140625 48.78515625 C-2.68783963 36.56308104 -6.00932574 25.06472801 -14.84375 16.13671875 C-21.04550437 11.01518799 -29.72915466 7.13871673 -37.8984375 7.609375 C-49.2111344 9.71210677 -58.91069391 15.67407781 -65.484375 25.13671875 Z " fill="#4D4D4D" transform="translate(337,396)"/>
<path d="M0 0 C11.67783935 8.01595473 19.16500376 20.30269968 22.265625 34.0078125 C23.46048427 42.40723064 24.09589075 51.22769468 23.79296875 59.71484375 C22.03857712 61.46923538 19.73799419 60.83467338 17.40126038 60.83926392 C16.62874435 60.83566864 15.85622833 60.83207336 15.06030273 60.82836914 C13.84576416 60.82858818 13.84576416 60.82858818 12.60668945 60.82881165 C9.91745367 60.82811229 7.22828626 60.82031885 4.5390625 60.8125 C2.67961159 60.8106359 0.82016019 60.80921196 -1.03929138 60.80821228 C-5.94332221 60.80438646 -10.84732361 60.79455563 -15.75134277 60.7835083 C-20.75154217 60.77329556 -25.75174631 60.76871496 -30.75195312 60.76367188 C-40.57032546 60.75293342 -50.38867591 60.73585623 -60.20703125 60.71484375 C-59.76636657 63.10993264 -59.31577471 65.50243447 -58.859375 67.89453125 C-58.73671265 68.56701904 -58.61405029 69.23950684 -58.4876709 69.93237305 C-57.39091162 75.61195742 -55.48050965 79.99566511 -52.20703125 84.71484375 C-51.34078125 86.04515625 -51.34078125 86.04515625 -50.45703125 87.40234375 C-42.82694734 95.24437443 -33.60192101 99.05845312 -22.8125 99.71484375 C-11.68916468 99.71484375 -0.78917966 98.52761888 9.640625 94.51953125 C11.79296875 93.71484375 11.79296875 93.71484375 13.79296875 93.71484375 C14.29987459 95.77565736 14.79821494 97.83857901 15.29296875 99.90234375 C15.57140625 101.05089844 15.84984375 102.19945312 16.13671875 103.3828125 C16.7079226 106.28303204 16.92580654 108.7758076 16.79296875 111.71484375 C-5.62070025 119.25320226 -30.15258785 123.21605696 -52.5078125 113.2421875 C-66.33284268 105.81145336 -76.12811391 93.76521146 -80.69921875 78.75 C-85.46360839 59.65579229 -82.60260114 37.21421986 -72.76171875 20.21875 C-71.32032426 17.98119258 -69.80436304 15.8432472 -68.20703125 13.71484375 C-67.76875 13.09996094 -67.33046875 12.48507812 -66.87890625 11.8515625 C-52.42516132 -6.88015866 -19.967467 -11.62707371 0 0 Z M-48.2734375 17.796875 C-53.37229013 22.85452478 -57.72437412 28.54866762 -59.20703125 35.71484375 C-59.20703125 38.02484375 -59.20703125 40.33484375 -59.20703125 42.71484375 C-38.74703125 42.71484375 -18.28703125 42.71484375 2.79296875 42.71484375 C2.79296875 31.98458337 1.13848369 25.2581152 -6.3046875 17.46875 C-18.90888881 5.84803873 -35.39434621 6.71376708 -48.2734375 17.796875 Z " fill="#4D4D4D" transform="translate(672.20703125,392.28515625)"/>
<path d="M0 0 C8.25 0 16.5 0 25 0 C27.97937489 7.87615529 30.95404663 15.75404359 33.92132473 23.63476276 C35.3005623 27.29733052 36.68154715 30.95921556 38.06713867 34.61938477 C45.13220683 53.28697897 51.87348228 72.00002486 58 91 C58.2902002 90.09386963 58.58040039 89.18773926 58.87939453 88.25415039 C64.62800606 70.3267939 70.46721406 52.43165988 76.52947998 34.6076355 C77.1287175 32.84550986 77.72660595 31.0829248 78.32305908 29.31985474 C81.57312742 19.72262238 84.96458865 10.30030316 89 1 C96.92 1 104.84 1 113 1 C108.24934239 14.73177199 103.0917686 28.2762661 97.8125 41.8125 C96.95959231 44.00369504 96.10681012 46.19493893 95.25415039 48.38623047 C93.58612814 52.67138293 91.91630939 56.95582898 90.24511719 61.23974609 C88.62871701 65.38425984 87.01777085 69.5308242 85.41241455 73.67962646 C79.96825123 87.7467122 74.30880329 101.68843156 68.13916016 115.45458984 C67.40364654 117.09806712 66.67373873 118.74407002 65.95068359 120.39306641 C56.30680832 142.37508342 43.13746763 162.58491844 20 172 C17.33353665 172.82812114 14.74084561 173.4416796 12 174 C9.53062327 167.7677635 7.6813917 161.48707154 6 155 C7.41539062 154.32517578 7.41539062 154.32517578 8.859375 153.63671875 C21.06692666 147.60403781 31.71882593 139.78640053 39 128 C39.7425 126.81277344 39.7425 126.81277344 40.5 125.6015625 C43.83396177 119.71277133 44.33340722 115.69074909 43 109 C41.7289339 105.00973594 40.14798816 101.16925586 38.5390625 97.3046875 C38.08092163 96.17839935 37.62278076 95.05211121 37.15075684 93.89169312 C35.90953824 90.84579226 34.658516 87.80415343 33.40317535 84.76405334 C32.09704525 81.59336767 30.80464181 78.41710107 29.51123047 75.24121094 C27.39247574 70.0427427 25.26727476 64.84696259 23.13671875 59.65332031 C18.8562458 49.21724075 14.6061085 38.76889029 10.36932373 28.31500244 C9.14337386 25.29525826 7.91117666 22.27812044 6.67822266 19.26123047 C5.93370022 17.429451 5.1893845 15.59758749 4.4453125 13.765625 C4.10786011 12.9442807 3.77040771 12.1229364 3.42272949 11.27670288 C3.11581177 10.51797882 2.80889404 9.75925476 2.49267578 8.97753906 C2.22673615 8.32561584 1.96079651 7.67369263 1.6867981 7.00201416 C1 5 1 5 0 0 Z " fill="#4D4D4D" transform="translate(371,388)"/>
<path d="M0 0 C7.26 0 14.52 0 22 0 C22.33 39.6 22.66 79.2 23 120 C16.4 120 9.8 120 3 120 C1.00383446 118.00383446 1.59016573 114.18298037 1.4375 111.4375 C1.39431641 110.72658203 1.35113281 110.01566406 1.30664062 109.28320312 C1.20028223 107.52238088 1.09961154 105.7612168 1 104 C0.44054687 104.64066406 -0.11890625 105.28132813 -0.6953125 105.94140625 C-9.61391753 115.56260236 -20.55520354 122.29821117 -34 123 C-47.07341991 123.08995472 -57.24134043 120.73290237 -66.7734375 111.48828125 C-76.40642681 100.7229932 -79.18300401 87.92035243 -79.11352539 73.76977539 C-79.11367142 72.97871399 -79.11381744 72.18765259 -79.1139679 71.37261963 C-79.11327616 68.78093641 -79.10551863 66.18932678 -79.09765625 63.59765625 C-79.09578944 61.79162129 -79.09436678 59.98558582 -79.09336853 58.17955017 C-79.08956404 53.4432941 -79.07975154 48.70706907 -79.06866455 43.9708252 C-79.05840583 39.13094502 -79.05386138 34.2910598 -79.04882812 29.45117188 C-79.0381273 19.96743214 -79.02054738 10.48372352 -79 1 C-71.74 1 -64.48 1 -57 1 C-56.98018066 2.94583984 -56.96036133 4.89167969 -56.93994141 6.89648438 C-56.87163859 13.39047513 -56.79482964 19.8843238 -56.71247292 26.37815094 C-56.66293577 30.30789295 -56.61660961 34.23761344 -56.578125 38.16748047 C-56.54072465 41.97370295 -56.49423314 45.77972377 -56.44193649 49.58576965 C-56.42367821 51.02387382 -56.40847018 52.46202071 -56.39665604 53.90019226 C-56.49575949 76.08273897 -56.49575949 76.08273897 -48 96 C-42.00190049 101.35215034 -35.77679019 102.37777018 -27.94140625 102.2734375 C-19.55155415 101.49350437 -12.4360436 97.36621106 -7 91 C-2.10917527 83.32310844 -0.90122356 76.47525611 -0.79467773 67.43408203 C-0.78477814 66.70168808 -0.77487854 65.96929413 -0.76467896 65.21470642 C-0.73328573 62.81244046 -0.70839502 60.41015478 -0.68359375 58.0078125 C-0.66300503 56.33486439 -0.64200807 54.66192125 -0.62062073 52.98898315 C-0.56559808 48.59965055 -0.51610199 44.21027255 -0.46777344 39.82086182 C-0.41741321 35.33626293 -0.36180316 30.85172944 -0.30664062 26.3671875 C-0.19930153 17.57817895 -0.09828891 8.78911442 0 0 Z " fill="#4D4D4D" transform="translate(182,388)"/>
<path d="M0 0 C7.73755304 6.57162039 13.05415076 14.66194038 14.99609375 24.6953125 C15.90289239 37.7245772 13.85464832 48.11032063 5.99609375 58.6953125 C-1.65446463 67.15205875 -11.94581802 71.95491224 -23.25 72.87890625 C-34.81840135 73.21974303 -45.2266393 69.53054968 -53.75390625 61.6328125 C-63.23330525 51.6323827 -65.58394835 40.78999949 -65.3359375 27.578125 C-64.80454945 16.19373738 -59.1121319 8.31340362 -51.00390625 0.6953125 C-36.62035856 -11.90164716 -15.09222021 -11.02147457 0 0 Z " fill="#606161" transform="translate(99.00390625,106.3046875)"/>
<path d="M0 0 C0 11.22 0 22.44 0 34 C10.23 34 20.46 34 31 34 C31 39.61 31 45.22 31 51 C20.77 51 10.54 51 0 51 C0.12011161 62.86633206 0.12011161 62.86633206 0.2578125 74.73242188 C0.3179361 79.57767739 0.37607434 84.42289571 0.421875 89.26831055 C0.45896355 93.17824602 0.50538467 97.08797295 0.55806351 100.99772835 C0.57648308 102.48348363 0.59163605 103.9692834 0.60334396 105.45510674 C0.20159894 120.12766622 0.20159894 120.12766622 6 133 C13.31345056 137.2192984 20.93439342 135.87167363 29 135 C29.83253956 140.72370949 30.09705875 146.22156499 30 152 C23.56181342 154.5513647 17.90610904 155.49593631 11 155.4375 C10.16210938 155.45748047 9.32421875 155.47746094 8.4609375 155.49804688 C0.12729647 155.49159669 -7.1658073 152.61062973 -13.36328125 146.9765625 C-19.65021248 139.38423028 -22.16191622 131.00901128 -22.11352539 121.38574219 C-22.11367142 120.62437958 -22.11381744 119.86301697 -22.1139679 119.07858276 C-22.11327255 116.56798429 -22.10549787 114.05746048 -22.09765625 111.546875 C-22.09579073 109.80381308 -22.09436746 108.06075063 -22.09336853 106.31768799 C-22.08955394 101.73427884 -22.07973267 97.15090149 -22.06866455 92.56750488 C-22.0584277 87.88875763 -22.05386604 83.21000523 -22.04882812 78.53125 C-22.03810946 69.35415047 -22.0205212 60.17708285 -22 51 C-28.27 51 -34.54 51 -41 51 C-41 45.39 -41 39.78 -41 34 C-34.73 34 -28.46 34 -22 34 C-22 24.43 -22 14.86 -22 5 C-18.04926968 3.41970787 -14.54907811 2.31832846 -10.4375 1.375 C-8.76494141 0.98441406 -8.76494141 0.98441406 -7.05859375 0.5859375 C-4 0 -4 0 0 0 Z " fill="#4D4D4D" transform="translate(541,355)"/>
<path d="M0 0 C7.59 0 15.18 0 23 0 C23.06791105 15.94307733 23.12309419 31.88603868 23.15543652 47.82921886 C23.17085762 55.23312269 23.19185525 62.63692978 23.22631836 70.04077148 C23.25636738 76.49943608 23.2756095 82.95803056 23.28226548 89.41676313 C23.28615172 92.83166875 23.29518348 96.24637392 23.31719017 99.66121483 C23.33912525 103.48804747 23.34196016 107.31447153 23.34057617 111.14135742 C23.351362 112.25411041 23.36214783 113.3668634 23.3732605 114.51333618 C23.31372073 129.83468594 18.97872669 145.96708437 8.046875 157.26171875 C-2.10478405 165.88287958 -15.63970539 170.69426119 -29 170 C-31.08141554 167.91858446 -30.73088761 163.81393047 -31.0625 160.9375 C-31.19881836 159.79958008 -31.19881836 159.79958008 -31.33789062 158.63867188 C-31.5624374 156.7595699 -31.78170978 154.87983905 -32 153 C-30.53240234 152.67128906 -30.53240234 152.67128906 -29.03515625 152.3359375 C-20.00865926 150.20114504 -10.82509159 147.9955714 -5.5625 139.625 C-1.05785565 129.1742251 -0.85454904 118.29312094 -0.79467773 107.05444336 C-0.78477814 105.89245422 -0.77487854 104.73046509 -0.76467896 103.53326416 C-0.73326516 99.71881093 -0.70838656 95.90434527 -0.68359375 92.08984375 C-0.66300682 89.43469336 -0.64205543 86.77954833 -0.62062073 84.12440491 C-0.57089815 77.8667272 -0.52588437 71.609025 -0.48259836 65.35129982 C-0.43305023 58.22181463 -0.37819784 51.09237326 -0.32291877 43.96293056 C-0.20941283 29.30866081 -0.10320663 14.65434601 0 0 Z " fill="#4D4D4D" transform="translate(41,388)"/>
<path d="M0 0 C0 6.93 0 13.86 0 21 C-2.43375 21.20625 -4.8675 21.4125 -7.375 21.625 C-16.3037036 22.60852491 -22.33756226 25.49679868 -28.875 31.75 C-34.28709483 40.0273215 -36.08139684 48.29912131 -36.20532227 58.10693359 C-36.22017166 59.13237274 -36.22017166 59.13237274 -36.23532104 60.17852783 C-36.26668763 62.41846355 -36.29159419 64.65842042 -36.31640625 66.8984375 C-36.33699729 68.45928471 -36.3579943 70.0201266 -36.37937927 71.58096313 C-36.43437805 75.67437421 -36.4838845 79.76783375 -36.53222656 83.86132812 C-36.58260441 88.04431432 -36.63820519 92.22723079 -36.69335938 96.41015625 C-36.8006692 104.60671328 -36.90169054 112.80333007 -37 121 C-44.26 121 -51.52 121 -59 121 C-59.33 82.06 -59.66 43.12 -60 3 C-53.07 3 -46.14 3 -39 3 C-38.67 8.94 -38.34 14.88 -38 21 C-37.195625 19.68 -36.39125 18.36 -35.5625 17 C-26.55908707 3.64213269 -15.80612082 -0.74381745 0 0 Z " fill="#4D4D4D" transform="translate(786,386)"/>
</svg>
