<?xml version="1.0" encoding="UTF-8"?>
<svg version="1.1" xmlns="http://www.w3.org/2000/svg" width="1280" height="1035">
<path d="M0 0 C0.27561768 0.86351074 0.55123535 1.72702148 0.83520508 2.61669922 C12.57659746 39.1793612 27.56390717 74.12746255 46.63671875 107.50488281 C47.6175665 109.30005902 48.52921967 111.13367155 49.39453125 112.98730469 C49.87277344 113.97891602 50.35101562 114.97052734 50.84375 115.9921875 C51.25818359 116.90081543 51.67261719 117.80944336 52.09960938 118.74560547 C54.84672559 122.00445325 57.97958712 122.33819106 62 123 C62.76600525 123.14142426 63.5320105 123.28284851 64.32122803 123.42855835 C66.87958328 123.89021087 69.44213934 124.31536862 72.0078125 124.734375 C73.96772681 125.06074517 75.92760497 125.38733244 77.88745117 125.71411133 C78.9050351 125.88278717 79.92261902 126.05146301 80.97103882 126.22525024 C137.11769974 135.56681944 193.52960705 147.30907309 246 170 C246.87172852 170.37189453 247.74345703 170.74378906 248.64160156 171.12695312 C279.53743888 184.36302396 308.30650263 201.02825107 333 224 C334.3709163 225.19221213 335.74576624 226.37991999 337.125 227.5625 C344.93063141 234.39829344 351.55038288 241.88292089 358 250 C358.85229442 251.04994226 359.70517439 252.09940942 360.55859375 253.1484375 C366.057197 259.96279953 371.20461113 266.98726649 376.1875 274.1875 C376.76467773 275.01378906 377.34185547 275.84007812 377.93652344 276.69140625 C378.73171387 277.85542969 378.73171387 277.85542969 379.54296875 279.04296875 C380.01758545 279.73414795 380.49220215 280.42532715 380.98120117 281.13745117 C382 283 382 283 382 286 C373.47324946 287.62855639 364.9377518 289.19195856 356.38769531 290.69335938 C282.21771076 303.76641198 206.91609633 320.75306254 135.31811523 344.38208008 C133 345 133 345 129 345 C129.19698486 345.98677734 129.39396973 346.97355469 129.59692383 347.99023438 C138.3643905 392.71932208 137.68157295 440.88556181 132 486 C131.8981842 486.82052856 131.79636841 487.64105713 131.69146729 488.4864502 C123.78930302 551.85478936 104.70198858 610.5046647 77.390625 668.06298828 C76.01808409 670.96180625 74.66341959 673.86839667 73.3125 676.77734375 C61.13596052 702.86403948 61.13596052 702.86403948 57 707 C22.99734464 709.26189965 -12.46708579 703.27354192 -46 698 C-46.82111267 697.87131531 -47.64222534 697.74263062 -48.48822021 697.61004639 C-111.91733246 687.62814106 -179.96174809 672.85475757 -230 630 C-230.88727783 629.24033936 -230.88727783 629.24033936 -231.79248047 628.46533203 C-247.52434697 614.81704518 -262.20800955 597.7118949 -264.17578125 576.06640625 C-265.92125438 549.68482665 -252.54663047 529.24076702 -235.8125 510.125 C-227.06496048 500.61477465 -217.93708621 491.27154822 -208 483 C-207.01644531 482.16210938 -206.03289063 481.32421875 -205.01953125 480.4609375 C-199.98414164 476.17178153 -194.92552863 471.93244136 -189.75 467.8125 C-183.22908186 462.51008919 -177.20353451 456.68831682 -171.1171875 450.8984375 C-167.85263111 447.79435999 -164.53899336 444.75969801 -161.1875 441.75 C-155.53423298 436.59139384 -150.10677253 431.21556922 -144.6875 425.8125 C-143.83889404 424.96848633 -142.99028809 424.12447266 -142.1159668 423.25488281 C-137.75283888 418.88101357 -133.53936209 414.43953956 -129.51293945 409.75366211 C-127.48571223 407.40388428 -125.36628918 405.14453771 -123.25 402.875 C-117.96055142 397.07263519 -113.13047629 390.96955937 -108.34814453 384.74658203 C-107.05449346 383.07059873 -105.74672693 381.40683587 -104.43359375 379.74609375 C-78.81763943 347.20475092 -55.06876884 305.48453022 -54.796875 263.01171875 C-54.78990601 262.27497925 -54.78293701 261.53823975 -54.77575684 260.7791748 C-54.75846358 258.4152244 -54.75203745 256.05151102 -54.75 253.6875 C-54.74899292 252.88075836 -54.74798584 252.07401672 -54.74694824 251.24282837 C-54.75708353 239.25501558 -55.20926231 227.70870811 -58 216 C-58.14985352 215.3385498 -58.29970703 214.67709961 -58.45410156 213.99560547 C-67.40768944 175.07316136 -91.80697223 148.99966258 -119.18920898 121.68041992 C-121.69701442 119.17834217 -124.20025808 116.67175589 -126.70221996 114.16383648 C-128.65740708 112.20501052 -130.61500067 110.24860338 -132.5732975 108.29288673 C-133.9393013 106.92785685 -135.30332303 105.56084437 -136.6672821 104.19377136 C-141.10016069 99.77743287 -145.58366328 95.50400222 -150.36421204 91.46443176 C-154.69330294 87.58883275 -157.02487621 83.19035328 -157.40234375 77.421875 C-156.20853478 70.2358404 -149.32847456 65.01134617 -143.9375 60.6875 C-109.20645904 35.96665881 -66.85804115 20.92116208 -27.0625 6.5 C-26.15895782 6.16849945 -25.25541565 5.8369989 -24.32449341 5.49545288 C-21.75369034 4.55579017 -19.17709295 3.63440668 -16.59765625 2.71875 C-15.46728943 2.30282341 -15.46728943 2.30282341 -14.31408691 1.87849426 C-9.34674032 0.14865096 -5.25961011 -0.25810397 0 0 Z M-18.4375 11.75 C-19.05725708 11.99376373 -19.67701416 12.23752747 -20.31555176 12.48867798 C-38.91158525 19.82117064 -57.33243008 27.7430379 -75.06396484 36.99072266 C-77.27351476 38.14258638 -79.49055764 39.27948898 -81.70703125 40.41796875 C-83.28437973 41.23596652 -84.86121414 42.05495644 -86.4375 42.875 C-87.54955811 43.4477063 -87.54955811 43.4477063 -88.68408203 44.03198242 C-92.48708871 45.82136129 -92.48708871 45.82136129 -95 49 C-94.34522675 49.0972084 -93.69045349 49.19441681 -93.01583862 49.29457092 C-36.85247684 57.64348989 -36.85247684 57.64348989 -13.8125 61.9375 C-13.04234558 62.08043488 -12.27219116 62.22336975 -11.47869873 62.37063599 C-4.26793723 63.71590692 2.9121859 65.09704602 10 67 C9.62718564 65.60358131 9.25144541 64.20794421 8.875 62.8125 C8.60171875 61.79671875 8.3284375 60.7809375 8.046875 59.734375 C7.28018301 56.9994588 6.47998201 54.29042741 5.640625 51.578125 C1.17608708 36.9235572 -1.54308759 22.10918686 -4 7 C-8.86786556 7 -13.96811168 9.98925094 -18.4375 11.75 Z M-102 56 C-101.27852783 56.72074707 -100.55705566 57.44149414 -99.8137207 58.18408203 C-97.19738274 60.80246313 -94.58798266 63.42752334 -91.98046875 66.0546875 C-90.54165542 67.50088274 -89.10235519 68.94659145 -87.6628418 70.39208984 C-86.68374233 71.376212 -85.70554305 72.36123062 -84.72827148 73.34716797 C-79.58466316 78.5349758 -74.40133873 83.59555929 -68.84350586 88.34179688 C-66.88609595 90.10245481 -65.10799021 91.95872164 -63.32421875 93.89453125 C-62.72287109 94.53970703 -62.12152344 95.18488281 -61.50195312 95.84960938 C-60.28789106 97.16299191 -59.08991706 98.49142244 -57.90820312 99.83398438 C-53.71522114 104.25916557 -49.9634077 106.41993671 -43.85424805 107.17016602 C-38.41628218 106.84596259 -34.50270852 104.00922525 -30.0625 101.0625 C-27.98374182 99.76427554 -25.90155188 98.47153398 -23.81640625 97.18359375 C-22.72344238 96.50151855 -21.63047852 95.81944336 -20.50439453 95.11669922 C-14.331295 91.33430345 -7.89784974 88.0069302 -1.5 84.625 C-0.24602404 83.95869899 1.00780457 83.29212058 2.26147461 82.62524414 C5.17215838 81.0793609 8.08489152 79.53751819 11 78 C11 77.67 11 77.34 11 77 C9.72511719 76.82984375 8.45023438 76.6596875 7.13671875 76.484375 C-27.67007062 71.80854186 -62.63329661 66.9897454 -96.3984375 57.03125 C-99.69607291 55.90824269 -99.69607291 55.90824269 -102 56 Z M-127.9375 71.5625 C-132.22094113 75.94573457 -136 80.6085928 -136 87 C-122.37275784 92.15872149 -108.23370446 95.03221658 -94 98 C-92.55415527 98.30454102 -92.55415527 98.30454102 -91.07910156 98.61523438 C-90.19577148 98.79763672 -89.31244141 98.98003906 -88.40234375 99.16796875 C-87.635271 99.32676514 -86.86819824 99.48556152 -86.07788086 99.64916992 C-83.36618135 100.10701415 -80.74186232 100.14430854 -78 100 C-79.3314565 97.121582 -80.83298322 94.80803749 -82.87109375 92.3828125 C-83.44021484 91.70009277 -84.00933594 91.01737305 -84.59570312 90.31396484 C-85.20349609 89.59160645 -85.81128906 88.86924805 -86.4375 88.125 C-91.04000106 82.60223622 -95.58421016 77.04833844 -100 71.375 C-103.55764836 66.81526039 -107.11823037 62.29037696 -111 58 C-115.99440832 58 -124.38328395 68.16795755 -127.9375 71.5625 Z M9.3125 89.375 C1.0444903 96.13524263 -7.61474693 102.39871727 -16.9296875 107.65234375 C-17.61289062 108.09707031 -18.29609375 108.54179688 -19 109 C-19 109.66 -19 110.32 -19 111 C-12.11412105 112.14493333 -5.22722926 113.28361507 1.66040039 114.41796875 C4.00308605 114.80455161 6.34553663 115.19256186 8.68774414 115.58203125 C12.05554304 116.14178413 15.42415557 116.69638851 18.79296875 117.25 C19.83897751 117.42499023 20.88498627 117.59998047 21.96269226 117.78027344 C22.94333145 117.94043945 23.92397064 118.10060547 24.93432617 118.265625 C26.22339119 118.47880371 26.22339119 118.47880371 27.53849792 118.69628906 C30.05146697 119.00635022 32.47067144 119.0531705 35 119 C33.51477404 115.08147355 31.72360557 111.42069804 29.77734375 107.7109375 C29.47180069 107.12583405 29.16625763 106.54073059 28.85145569 105.93789673 C27.8823985 104.08240421 26.91031202 102.22852635 25.9375 100.375 C24.65239962 97.92580203 23.37027742 95.47507775 22.08984375 93.0234375 C21.52128662 91.93981934 20.95272949 90.85620117 20.36694336 89.73974609 C19 87 19 87 18 84 C14.45203261 84 11.94865405 87.17931138 9.3125 89.375 Z M-120 104 C-117.26950018 107.63854976 -114.46193991 110.40056273 -110.875 113.1875 C-99.59162643 122.24428786 -90.16031656 132.94619989 -81.4375 144.4375 C-80.87393799 145.17669678 -80.31037598 145.91589355 -79.72973633 146.67749023 C-75.95575021 151.65818829 -72.30987924 156.69512506 -69 162 C-67.96374864 158.81766412 -68.05271692 156.92065119 -69.03222656 153.73803711 C-69.28288879 152.90715073 -69.53355103 152.07626434 -69.79180908 151.22019958 C-70.07191833 150.33155716 -70.35202759 149.44291473 -70.640625 148.52734375 C-70.92347351 147.60788467 -71.20632202 146.6884256 -71.4977417 145.74110413 C-72.09815367 143.79875183 -72.70369276 141.85797809 -73.31396484 139.91870117 C-74.24622858 136.9495117 -75.15737578 133.97442033 -76.06640625 130.99804688 C-76.65238827 129.11158808 -77.23958733 127.2255068 -77.828125 125.33984375 C-78.10013733 124.44917709 -78.37214966 123.55851044 -78.65240479 122.64085388 C-78.91567566 121.81311966 -79.17894653 120.98538544 -79.45019531 120.13256836 C-79.67749329 119.40516953 -79.90479126 118.67777069 -80.13897705 117.92832947 C-81.12751221 115.71442626 -82.12229835 114.52610974 -84 113 C-86.56474825 112.12755841 -89.04138485 111.39621161 -91.66015625 110.73828125 C-92.77867226 110.44500191 -92.77867226 110.44500191 -93.91978455 110.14579773 C-96.29829525 109.52501423 -98.6802937 108.91892786 -101.0625 108.3125 C-102.67015478 107.89347068 -104.2775798 107.47355877 -105.88476562 107.05273438 C-107.41385643 106.65545602 -108.94314689 106.25894512 -110.47265625 105.86328125 C-111.19663101 105.6758284 -111.92060577 105.48837555 -112.66651917 105.29524231 C-116.28751154 104.33374874 -116.28751154 104.33374874 -120 104 Z M-73 116 C-71.69485851 120.01977616 -70.26247196 123.94885421 -68.6796875 127.8671875 C-62.58204067 143.09436363 -56.97720026 158.36295218 -52 174 C-48.08853162 170.68039855 -44.24505832 167.32009992 -40.5 163.8125 C-26.51884074 151.2567063 -9.986593 140.03306861 7 132 C7 131.67 7 131.34 7 131 C6.46305008 130.90057098 5.92610016 130.80114197 5.37287903 130.69869995 C-1.48143527 129.42871264 -8.3347398 128.15334557 -15.1875 126.875 C-16.27823822 126.6715799 -17.36897644 126.46815979 -18.49276733 126.25857544 C-32.98188871 123.55201928 -47.44560368 120.7675637 -61.8581543 117.67724609 C-62.91172119 117.45246582 -63.96528809 117.22768555 -65.05078125 116.99609375 C-65.94450439 116.80200928 -66.83822754 116.6079248 -67.7590332 116.40795898 C-70.11228226 115.91044881 -70.11228226 115.91044881 -73 116 Z M12.359375 136.67578125 C11.25855591 137.53840576 11.25855591 137.53840576 10.13549805 138.41845703 C9.34828369 139.04349121 8.56106934 139.66852539 7.75 140.3125 C6.94022705 140.9504248 6.1304541 141.58834961 5.29614258 142.24560547 C3.64294626 143.54804486 1.99100793 144.85208262 0.34033203 146.15771484 C-1.71126563 147.77271129 -3.77426004 149.37019788 -5.84765625 150.95703125 C-18.12669985 160.38372876 -29.16208841 170.96661505 -40 182 C-37.56602628 184.43397372 -35.82479866 184.81110753 -32.52807617 185.77172852 C-31.38316208 186.10870255 -30.23824799 186.44567657 -29.05863953 186.79286194 C-27.81596817 187.15125656 -26.57329681 187.50965118 -25.29296875 187.87890625 C-24.00728285 188.25428921 -22.72174706 188.63018664 -21.43635559 189.00657654 C-18.73987534 189.79472815 -16.04220248 190.57860262 -13.34350586 191.35913086 C-9.89186998 192.35749013 -6.44246083 193.36328345 -2.99381542 194.37191868 C0.30150954 195.33529938 3.59800349 196.29465124 6.89453125 197.25390625 C8.13112991 197.6143251 9.36772858 197.97474396 10.64179993 198.34608459 C11.7961705 198.67990646 12.95054108 199.01372833 14.13989258 199.35766602 C15.15312088 199.65141617 16.16634918 199.94516632 17.21028137 200.24781799 C19.80383722 200.94710932 22.3438982 201.59503273 25 202 C27.63677644 199.36322356 26.24200562 191.77986322 26.25 188.25 C26.24398857 169.30439145 23.58212166 152.07018829 18 134 C15.30105773 134 14.46808634 135.01170587 12.359375 136.67578125 Z M27 135 C27.15855469 135.52464844 27.31710937 136.04929688 27.48046875 136.58984375 C27.99235499 138.28953232 28.50106392 139.99017886 29.0078125 141.69140625 C29.74221066 144.14036388 30.48814753 146.58446084 31.2421875 149.02734375 C31.6825238 150.47649198 32.12262722 151.925711 32.5625 153.375 C32.77221436 154.04523193 32.98192871 154.71546387 33.19799805 155.40600586 C36.37770693 165.9719789 37.36830873 176.78417896 38.125 187.75 C38.21136719 188.9359375 38.29773438 190.121875 38.38671875 191.34375 C38.59612104 194.22884815 38.80047083 197.11420517 39 200 C45.14983225 196.677802 51.06759471 193.10354523 56.9375 189.3125 C78.33954286 175.66212891 101.10853621 164.88006481 124 154 C123.505 153.01 123.505 153.01 123 152 C120.22056362 151.26744136 117.49369474 150.66226215 114.67578125 150.1171875 C113.36561287 149.8539846 113.36561287 149.8539846 112.02897644 149.58546448 C109.12529545 149.00571401 106.21913217 148.43975509 103.3125 147.875 C101.29816274 147.47801876 99.28384001 147.08096376 97.26953125 146.68383789 C82.37641003 143.7676515 67.44904826 141.0505371 52.5 138.4375 C51.50078522 138.26192566 50.50157043 138.08635132 49.47207642 137.90545654 C46.63852831 137.40948248 43.80393365 136.92012177 40.96875 136.43359375 C40.13111618 136.28716934 39.29348236 136.14074493 38.4304657 135.98988342 C34.57506558 135.33757564 30.92767649 134.81854767 27 135 Z M137 157 C110.64625399 171.68349824 84.86568641 187.12423342 59.9375 204.125 C58.94544556 204.79934082 58.94544556 204.79934082 57.93334961 205.48730469 C55.04148247 207.48032238 52.43124708 209.47019499 50 212 C50.54712646 212.23074219 51.09425293 212.46148437 51.65795898 212.69921875 C69.63874123 220.29932385 87.11309088 228.18150102 104 238 C106.14567245 235.98807281 107.69037263 234.0695286 109.12890625 231.5078125 C109.51900879 230.81397461 109.90911133 230.12013672 110.31103516 229.40527344 C110.72401855 228.6527832 111.13700195 227.90029297 111.5625 227.125 C111.99868652 226.33125977 112.43487305 225.53751953 112.88427734 224.71972656 C123.57622247 205.02262579 135.56938821 182.62865339 138 160 C137.505 158.515 137.505 158.515 137 157 Z M147 158 C146.85304688 159.1653125 146.70609375 160.330625 146.5546875 161.53125 C143.26854765 186.12766313 136.82736477 209.87617344 125.71484375 232.13671875 C125.36099609 233.05904297 125.36099609 233.05904297 125 234 C125.33 234.66 125.66 235.32 126 236 C127.11797974 235.54898926 127.11797974 235.54898926 128.25854492 235.08886719 C169.53147607 218.53841241 211.85131944 206.57986767 255 196 C252.10691051 193.66359706 249.33148868 192.13901421 245.8984375 190.72265625 C244.86879883 190.29774902 243.83916016 189.8728418 242.77832031 189.43505859 C241.65522461 188.98211426 240.53212891 188.52916992 239.375 188.0625 C238.1900293 187.58377441 237.00505859 187.10504883 235.78417969 186.61181641 C206.8592705 175.02765994 177.28209451 165.36732306 147 158 Z M-68 162 C-67 164 -67 164 -67 164 Z M-46 203 C-45.90912109 203.857146 -45.81824219 204.71429199 -45.72460938 205.59741211 C-43.49485081 227.14173953 -42.58586503 248.34180308 -43 270 C-39.76195043 268.16671035 -37.10190228 266.34116833 -34.51171875 263.671875 C-33.89216309 263.04063721 -33.27260742 262.40939941 -32.63427734 261.7590332 C-31.99184082 261.09605225 -31.3494043 260.43307129 -30.6875 259.75 C-26.27448226 255.26542841 -21.88612464 250.85334053 -17.07421875 246.79296875 C-14.20628882 244.31391067 -11.45706384 241.71288749 -8.6875 239.125 C-3.73069528 234.50676499 1.35255795 230.15165324 6.66015625 225.9375 C8.91520126 224.07021732 10.96646354 222.1039823 13 220 C-15.66198323 207.85224188 -15.66198323 207.85224188 -46 203 Z M253.23828125 205.81640625 C252.55292801 206.0235173 251.86757477 206.23062836 251.16145325 206.4440155 C248.87507185 207.1395937 246.59362596 207.8498872 244.3125 208.5625 C243.51946472 208.80786499 242.72642944 209.05322998 241.90936279 209.30603027 C202.85518105 221.40694247 164.51229276 235.73774566 127 252 C128.19745236 255.59235709 129.32881414 256.25390793 132.3125 258.5 C138.52674981 263.34020028 144.28188188 268.59557478 150 274 C151.28583984 275.20462891 151.28583984 275.20462891 152.59765625 276.43359375 C163.26009539 286.72428382 171.75597606 298.74591997 180 311 C183.29406201 309.60553746 184.95404753 308.11878956 187.0625 305.25 C187.96935547 304.04150391 187.96935547 304.04150391 188.89453125 302.80859375 C189.58933594 301.88175781 190.28414062 300.95492187 191 300 C192.73851973 297.76176926 194.49436128 295.53731538 196.25 293.3125 C197.2059655 292.09784221 198.16169163 290.882996 199.1171875 289.66796875 C199.59639648 289.05872559 200.07560547 288.44948242 200.56933594 287.82177734 C201.94743857 286.06693062 203.32199348 284.30937301 204.6953125 282.55078125 C209.52365545 276.37466555 214.41045454 270.25478372 219.375 264.1875 C225.05309483 257.23916054 230.53505188 250.15622131 235.953125 243.00390625 C237.79364692 240.57489864 239.6504322 238.16292452 241.546875 235.77734375 C249.31757109 225.93700148 256.13842502 215.48568816 263 205 C259.04501797 203.68167266 257.21596359 204.60510943 253.23828125 205.81640625 Z M274 205 C273.53851562 205.94617188 273.07703125 206.89234375 272.6015625 207.8671875 C259.13392776 235.27291138 243.45756413 260.21958797 222.43896484 282.45947266 C221.0382319 283.95906969 219.66495106 285.47884778 218.30078125 287.01171875 C214.01100409 291.82704288 209.70005581 296.2826864 204.76171875 300.4296875 C202.18376245 302.72755542 200.12200421 305.28118211 198 308 C205.28252116 306.72259337 212.50835679 305.27859893 219.7265625 303.6796875 C266.90547946 293.36504638 314.70398624 284.38531933 362.99072266 281.34155273 C365.30979313 281.0877171 365.30979313 281.0877171 368 279 C364.07808399 275.02804482 360.14918523 271.06316799 356.21411133 267.10424805 C354.88086598 265.76104471 353.54943254 264.41604004 352.2199707 263.0690918 C344.47194037 255.22183999 336.72130009 247.77049439 328 241 C326.52785485 239.81608705 325.05646051 238.63123968 323.5859375 237.4453125 C313.75941413 229.65645745 303.68478262 222.55897547 293 216 C291.94377441 215.3512793 291.94377441 215.3512793 290.86621094 214.68945312 C282.59673938 209.54984356 282.59673938 209.54984356 274 205 Z M36 230 C34.19930232 235.26123012 32.53440792 240.53929298 31.00976562 245.88671875 C26.73185341 260.76953938 21.35908802 275.26619183 13.93359375 288.8828125 C13.62550781 289.58148438 13.31742188 290.28015625 13 291 C13.33 291.66 13.66 292.32 14 293 C14.55123535 292.6690332 15.1024707 292.33806641 15.67041016 291.99707031 C31.66144819 282.41761112 47.82744224 273.24397824 64.390625 264.6875 C65.44258057 264.14359619 66.49453613 263.59969238 67.57836914 263.03930664 C69.60835067 261.99347164 71.64127802 260.95332935 73.67749023 259.91967773 C74.59216064 259.44989502 75.50683105 258.9801123 76.44921875 258.49609375 C77.25705811 258.08544678 78.06489746 257.6747998 78.8972168 257.25170898 C80.94860708 256.0305923 82.40511594 254.76337352 84 253 C79.21865989 250.52461436 74.43547061 248.05285026 69.65063477 245.58422852 C68.02774284 244.74632148 66.40533454 243.90747698 64.78344727 243.06762695 C50.90163887 234.46637163 50.90163887 234.46637163 36 230 Z M19 234 C10.38368363 240.67861404 1.92008834 247.49076953 -6.35253906 254.59082031 C-8.0280879 256.02402539 -9.71226974 257.44649738 -11.3984375 258.8671875 C-21.61822116 267.50749769 -31.60368664 276.46344316 -41 286 C-39.69289063 286.67482422 -39.69289063 286.67482422 -38.359375 287.36328125 C-30.99367516 291.29727002 -24.78513676 295.53442782 -18.82128906 301.40551758 C-16.52292967 303.66487402 -15.11268396 304.96243868 -12 306 C-11.505 306.99 -11.505 306.99 -11 308 C2.24540817 286.49734801 15.34038644 262.10153513 20 237 C19.505 235.515 19.505 235.515 19 234 Z M106 268 C104.25314547 270.14319216 104.25314547 270.14319216 102.5625 273 C94.8924042 284.94222636 86.14229859 296.15216336 77 307 C76.56252441 307.52239258 76.12504883 308.04478516 75.67431641 308.58300781 C65.19828591 321.07267921 54.12224721 332.94620895 42.625 344.5 C41.66255371 345.46945557 41.66255371 345.46945557 40.68066406 346.45849609 C36.7904383 350.3356674 32.77730597 353.99423288 28.57958984 357.53710938 C26.88704079 358.93228765 26.88704079 358.93228765 26 361 C32.31918716 359.20934738 38.50944235 357.15208085 44.6953125 354.953125 C45.50943604 354.66387146 46.32355957 354.37461792 47.16235352 354.07659912 C48.00886475 353.7757843 48.85537598 353.47496948 49.72753906 353.16503906 C84.20772956 340.91347613 119.07904445 329.89575895 154.39941406 320.32324219 C155.17332489 320.11119644 155.94723572 319.8991507 156.74459839 319.68067932 C158.17897539 319.28818835 159.61487682 318.90120921 161.05252075 318.52085876 C164.02598263 317.70470366 165.78049086 317.21950914 168 315 C162.58747439 309.3469177 156.97122083 304.18856956 150.859375 299.30078125 C148.00366655 297.00295027 145.22332687 294.63180501 142.4375 292.25 C134.62573743 285.72320098 126.34459517 279.82308813 118 274 C117.19224121 273.43087891 116.38448242 272.86175781 115.55224609 272.27539062 C114.75512207 271.72560547 113.95799805 271.17582031 113.13671875 270.609375 C112.41572998 270.10889648 111.69474121 269.60841797 110.9519043 269.09277344 C108.93654925 267.75574817 108.93654925 267.75574817 106 268 Z M80 274 C52.18638664 288.18589882 24.87297441 303.09981175 -2 319 C-0.48521251 323.65797154 1.03335177 328.25948654 3 332.75 C7.16362208 343.0478134 8.60398791 354.04541099 10 365 C15.45428891 360.94424671 19.38916245 356.02646681 23.60742188 350.72949219 C25.13094687 348.83737244 26.67965835 346.96813168 28.234375 345.1015625 C35.2672501 336.65438177 42.08126101 328.08016748 48.71484375 319.31640625 C51.53084037 315.59983242 54.40152807 311.92909222 57.28393555 308.26391602 C64.10357194 299.58327246 70.56005922 290.70200659 76.85302734 281.63378906 C78.19395229 279.72372739 79.58010026 277.85204314 81 276 C80.505 275.01 80.505 275.01 80 274 Z M-51 306 C-51.27710815 306.83470825 -51.27710815 306.83470825 -51.55981445 307.6862793 C-56.21991009 321.53629311 -61.87404032 334.32470643 -69.00366211 347.08081055 C-70.1288709 349.12586229 -70.1288709 349.12586229 -71 352 C-68.14370384 350.66803413 -65.76639818 349.16236729 -63.3046875 347.19921875 C-62.59699219 346.64024902 -61.88929688 346.0812793 -61.16015625 345.50537109 C-60.40605469 344.90547363 -59.65195312 344.30557617 -58.875 343.6875 C-51.63468443 337.96949955 -44.26018013 332.50106148 -36.66357422 327.2644043 C-35.94959473 326.76207275 -35.23561523 326.25974121 -34.5 325.7421875 C-33.8709375 325.3076123 -33.241875 324.87303711 -32.59375 324.42529297 C-30.76697227 322.79160296 -29.95611397 321.23790427 -29 319 C-39.06126371 310.34154598 -39.06126371 310.34154598 -51 306 Z M-15 334 C-16.99019636 336.22755922 -18.93957823 338.47553024 -20.875 340.75 C-29.33686158 350.58843236 -38.0323268 360.11284823 -47.1875 369.3125 C-47.84081299 369.97048584 -48.49412598 370.62847168 -49.16723633 371.30639648 C-53.61476005 375.73935469 -58.23322353 379.91410285 -63 384 C-63.51957275 384.45189697 -64.03914551 384.90379395 -64.57446289 385.36938477 C-71.99289274 391.82046433 -79.6458377 397.88416349 -87.52709961 403.76025391 C-88.22456299 404.28409668 -88.92202637 404.80793945 -89.640625 405.34765625 C-90.26485352 405.81179932 -90.88908203 406.27594238 -91.53222656 406.75415039 C-93.14062789 407.95417077 -93.14062789 407.95417077 -94 410 C-89.98885517 408.72310472 -86.1902769 407.25555007 -82.37109375 405.48828125 C-81.2723291 404.98522461 -80.17356445 404.48216797 -79.04150391 403.96386719 C-77.85218262 403.41891602 -76.66286133 402.87396484 -75.4375 402.3125 C-50.37067391 390.92019178 -24.67758627 380.92149669 1 371 C-1.31070763 357.66275772 -5.32078837 344.68645602 -14 334 C-14.33 334 -14.66 334 -15 334 Z M-45.4375 346.6875 C-46.6192361 347.52032014 -47.80156373 348.35230132 -48.984375 349.18359375 C-49.62826172 349.63718262 -50.27214844 350.09077148 -50.93554688 350.55810547 C-53.8693573 352.60719302 -56.83150214 354.6136071 -59.79321289 356.62207031 C-63.0525796 358.83818709 -66.29639135 361.0766096 -69.54052734 363.31494141 C-71.95906154 364.97195183 -74.39462385 366.60139788 -76.83203125 368.23046875 C-86.25640315 374.64095522 -93.15464888 381.09395852 -99.76318359 390.34960938 C-101.77248884 393.03079837 -104.02744632 395.42406835 -106.3125 397.875 C-110.19166215 402.0511315 -113.71687568 406.34223419 -117 411 C-112.04822795 409.3751998 -108.18524266 406.51151627 -104 403.5 C-103.2467041 402.96173584 -102.4934082 402.42347168 -101.71728516 401.86889648 C-86.45049467 390.90509475 -72.26008523 378.98134572 -58.5 366.1875 C-57.85377686 365.58977783 -57.20755371 364.99205566 -56.54174805 364.3762207 C-52.64648 360.71800769 -49.06224356 356.90066766 -45.60327148 352.8269043 C-43.99884185 350.99868031 -42.31273458 349.31302668 -40.5625 347.625 C-37.76715443 345.37287237 -37.76715443 345.37287237 -38 343 C-41.15321635 343 -42.89112975 344.88071245 -45.4375 346.6875 Z M105.1015625 352.43359375 C104.07732178 352.7486084 103.05308105 353.06362305 101.99780273 353.38818359 C100.88477783 353.73445801 99.77175293 354.08073242 98.625 354.4375 C96.91389038 354.96851318 96.91389038 354.96851318 95.16821289 355.51025391 C92.0893012 356.46858373 89.01159647 357.43066734 85.93450928 358.39483643 C83.97214371 359.00871416 82.0088801 359.61964507 80.04541016 360.22998047 C76.17283908 361.43473872 72.3049796 362.6539936 68.4375 363.875 C67.21305176 364.2558374 65.98860352 364.6366748 64.72705078 365.02905273 C63.59895996 365.38813721 62.47086914 365.74722168 61.30859375 366.1171875 C60.30626709 366.43284668 59.30394043 366.74850586 58.27124023 367.07373047 C55.83774135 367.77508363 55.83774135 367.77508363 55 370 C74.81976956 383.39841119 94.92777539 396.63584635 116 408 C116.47205964 396.54818272 115.6226339 385.26727215 114.5625 373.875 C114.49501556 373.14572296 114.42753113 372.41644592 114.35800171 371.66506958 C113.71290963 364.75372903 113.0220182 357.86818269 112 351 C109.47607922 351 107.5185451 351.68782769 105.1015625 352.43359375 Z M39 374 C38.98541748 374.62640381 38.97083496 375.25280762 38.95581055 375.89819336 C38.25886919 403.04935399 34.39658784 428.55670786 28.14303589 454.92300415 C27.29118362 458.42380878 27.29118362 458.42380878 27 462 C34.61340334 459.65555516 41.7231131 456.55334416 48.9375 453.1875 C49.54072083 452.90676636 50.14394165 452.62603271 50.76544189 452.33679199 C69.12830202 443.76661457 87.27306552 434.48552449 104 423 C105.00804687 422.3296875 106.01609375 421.659375 107.0546875 420.96875 C110.61285553 418.59830102 110.61285553 418.59830102 114 416 C114 415.34 114 414.68 114 414 C113.06542969 413.53851563 112.13085938 413.07703125 111.16796875 412.6015625 C106.76835412 410.42138362 102.38227516 408.21479604 98 406 C96.9171875 405.45424316 96.9171875 405.45424316 95.8125 404.89746094 C82.95745955 398.38261028 70.57519018 391.131377 58.21484375 383.734375 C57.1666748 383.10724609 56.11850586 382.48011719 55.03857422 381.83398438 C53.04279827 380.62939906 51.05451797 379.41228926 49.07470703 378.18164062 C48.18509277 377.63185547 47.29547852 377.08207031 46.37890625 376.515625 C45.60232666 376.02868164 44.82574707 375.54173828 44.02563477 375.04003906 C41.93470838 373.77162403 41.93470838 373.77162403 39 374 Z M13.4375 383.1875 C12.09909058 383.70086914 12.09909058 383.70086914 10.73364258 384.22460938 C-3.54681718 389.72357767 -17.77022658 395.3714887 -32 401 C-31.4758386 404.79609633 -30.79429088 407.91617706 -29.03125 411.3203125 C-28.62962646 412.09705322 -28.22800293 412.87379395 -27.81420898 413.67407227 C-27.38052002 414.48287842 -26.94683105 415.29168457 -26.5 416.125 C-26.05148682 416.96667725 -25.60297363 417.80835449 -25.14086914 418.67553711 C-17.56669401 432.58530108 -7.12056176 443.9039613 3.9375 455.125 C4.78973145 455.99692993 4.78973145 455.99692993 5.65917969 456.88647461 C7.06736478 458.29742168 8.52957308 459.6540425 10 461 C10.66 461 11.32 461 12 461 C16.76200827 445.12998507 20.60868463 429.40194911 23 413 C23.19722656 411.73285156 23.39445312 410.46570313 23.59765625 409.16015625 C24.28359332 403.4658698 24.10512773 397.72523223 24.0625 392 C24.05798828 390.84371094 24.05347656 389.68742187 24.04882812 388.49609375 C24.03712529 385.66400775 24.02072996 382.83203189 24 380 C20.31059452 380 16.84982438 381.86871488 13.4375 383.1875 Z M-47 407 C-49.41340768 409.7303198 -50.7434545 412.48745324 -52.0234375 415.875 C-52.58478394 417.33099609 -52.58478394 417.33099609 -53.1574707 418.81640625 C-53.55925537 419.86699219 -53.96104004 420.91757812 -54.375 422 C-65.78548656 451.10599594 -79.73078827 479.30086472 -96 506 C-93.9136081 507.31859787 -93.9136081 507.31859787 -91.10302734 506.23413086 C-89.8598877 505.81526611 -88.61674805 505.39640137 -87.3359375 504.96484375 C-86.30462959 504.62033928 -86.30462959 504.62033928 -85.25248718 504.26887512 C-82.95730203 503.49949988 -80.66613959 502.71883335 -78.375 501.9375 C-76.76500803 501.39386368 -75.15489851 500.8505754 -73.54467773 500.30761719 C-47.88948314 491.63239438 -22.19683485 482.94286865 3 473 C0.28633346 469.65221207 -2.26148364 466.58655724 -5.625 463.875 C-23.31360746 448.6800872 -36.00543351 428.33384616 -45 407 C-45.66 407 -46.32 407 -47 407 Z M-70 417 C-84.81611004 423.54733117 -99.58156832 430.18209736 -114.1875 437.1875 C-115.34419189 437.73946045 -116.50088379 438.2914209 -117.69262695 438.86010742 C-118.75698975 439.37420166 -119.82135254 439.8882959 -120.91796875 440.41796875 C-121.85406982 440.86938232 -122.7901709 441.3207959 -123.75463867 441.78588867 C-126.23842663 443.128922 -127.69196078 444.11010891 -128.6328125 446.828125 C-132.67331834 466.70997912 -130.74052993 488.97670652 -121 507 C-120.34 507.33 -119.68 507.66 -119 508 C-114.31362307 500.34526619 -109.64821346 492.67796819 -105 485 C-104.43458496 484.06623535 -103.86916992 483.1324707 -103.28662109 482.17041016 C-94.35920684 467.37756356 -86.02581824 452.29990694 -78 437 C-77.50322754 436.05318359 -77.00645508 435.10636719 -76.49462891 434.13085938 C-75.17146744 431.59338968 -73.8627618 429.04926629 -72.5625 426.5 C-72.17868164 425.7584668 -71.79486328 425.01693359 -71.39941406 424.25292969 C-70.53621795 422.53231964 -69.75803358 420.76946081 -69 419 C-69.495 418.01 -69.495 418.01 -70 417 Z M108.8125 429.125 C84.49069356 446.44440676 58.55953519 461.400238 32 475 C33.21587993 478.6476398 34.10869598 478.95489004 37.34765625 480.85546875 C38.70866455 481.65960205 38.70866455 481.65960205 40.09716797 482.47998047 C41.07572754 483.04346191 42.05428711 483.60694336 43.0625 484.1875 C44.06168457 484.76902832 45.06086914 485.35055664 46.09033203 485.94970703 C54.23735869 490.64936225 62.47585815 495.02885164 71 499 C71.62471191 499.29567871 72.24942383 499.59135742 72.89306641 499.89599609 C81.20581498 503.80449856 89.6751579 507.05271863 98.375 510 C99.29756592 510.31525635 100.22013184 510.6305127 101.1706543 510.95532227 C102.45903198 511.37962524 102.45903198 511.37962524 103.7734375 511.8125 C104.54091309 512.06644531 105.30838867 512.32039062 106.09912109 512.58203125 C108.07384738 513.22510101 108.07384738 513.22510101 110 512 C110.6302091 509.48694802 110.6302091 509.48694802 111 506.40234375 C111.16395264 505.22019287 111.32790527 504.03804199 111.49682617 502.82006836 C111.74589722 500.89819702 111.74589722 500.89819702 112 498.9375 C112.08682037 498.28540558 112.17364075 497.63331116 112.26309204 496.9614563 C115.47978439 472.79540333 117.33256586 448.38816275 117 424 C114.39533321 424 110.96613464 427.57012073 108.8125 429.125 Z M-210.5625 496.1875 C-217.63767615 503.26810368 -223.63896951 510.55965821 -229 519 C-229.65355469 520.01578125 -230.30710937 521.0315625 -230.98046875 522.078125 C-236.28744134 530.72317203 -240.58149484 539.88937811 -242 550 C-231.18185326 548.51380093 -220.82130765 545.19536857 -210.375 542.125 C-208.3911602 541.54594699 -206.40719008 540.96734029 -204.4230957 540.38916016 C-200.329843 539.19538995 -196.23757809 537.99831155 -192.14599609 536.79882812 C-187.1303883 535.32925792 -182.11201061 533.86947461 -177.09216309 532.41445923 C-173.34748449 531.32896191 -169.6036176 530.24068447 -165.85992432 529.15179443 C-164.09286732 528.63816341 -162.32557757 528.1253324 -160.55804443 527.61334229 C-158.09378857 526.89891443 -155.63074373 526.18045114 -153.16796875 525.4609375 C-152.09891045 525.15231781 -152.09891045 525.15231781 -151.008255 524.83746338 C-146.24516715 523.43995162 -141.63158101 521.78678638 -137 520 C-138.38298409 515.62606468 -140.06228237 511.49714596 -141.9375 507.3125 C-149.50501113 490.02352414 -149.72847835 473.5811423 -148 455 C-167.05691235 455 -197.96757663 483.83455009 -210.5625 496.1875 Z M20 485 C17.74675227 489.87400794 15.66606189 494.78589332 13.765625 499.80859375 C8.60900109 513.4332639 2.98830789 526.71084445 -3.25 539.875 C-3.58366577 540.57962372 -3.91733154 541.28424744 -4.2611084 542.01022339 C-8.71950244 551.40124742 -13.31833426 560.71838882 -18 570 C-14.0527289 569.32506142 -10.49031816 568.17169172 -6.7421875 566.76953125 C-6.13464127 566.54291809 -5.52709503 566.31630493 -4.90113831 566.08282471 C-2.89063406 565.33072732 -0.88266337 564.57214604 1.125 563.8125 C1.82406464 563.54911835 2.52312927 563.28573669 3.24337769 563.01437378 C37.92953909 549.93627392 72.74690427 536.42265486 106 520 C105.19315249 517.80921837 105.19315249 517.80921837 103.00415039 517.2890625 C102.12750732 517.06992187 101.25086426 516.85078125 100.34765625 516.625 C99.35701172 516.36759033 98.36636719 516.11018066 97.34570312 515.8449707 C96.26224609 515.56613037 95.17878906 515.28729004 94.0625 515 C70.13588088 508.53850575 46.342551 499.21737862 24.91796875 486.6484375 C22.26834303 484.83604493 22.26834303 484.83604493 20 485 Z M0 490 C-0.70044434 490.30067383 -1.40088867 490.60134766 -2.12255859 490.91113281 C-36.33207269 505.51793841 -71.255009 516.79703282 -107 527 C-101.61915629 535.40448295 -94.85982953 542.76377201 -87.19921875 549.16015625 C-85.58837672 550.50777009 -84.01203195 551.89691109 -82.45703125 553.30859375 C-71.06154166 563.43959044 -57.81039319 573.4639523 -44 580 C-29.89097908 556.76161261 -17.45389827 532.6426172 -6 508 C-5.5865332 507.11103027 -5.17306641 506.22206055 -4.74707031 505.30615234 C-3.69300047 503.02233434 -2.65368936 500.73284317 -1.625 498.4375 C-1.33238281 497.79458008 -1.03976562 497.15166016 -0.73828125 496.48925781 C-0.0957425 495.01883259 0.46233094 493.51192538 1 492 C0.505 491.01 0.505 491.01 0 490 Z M106 527 C105.175 527.4846875 104.35 527.969375 103.5 528.46875 C95.37649456 533.2013879 87.11994728 537.57941012 78.66796875 541.69921875 C76.70823953 542.65469434 74.75013918 543.61351268 72.79296875 544.57421875 C40.90518632 560.21927187 8.47653784 574.62775637 -24 589 C-20.38308489 593.04698395 -15.67772393 594.52780896 -10.75 596.5625 C-9.69586914 596.99796143 -8.64173828 597.43342285 -7.55566406 597.88208008 C20.47668961 609.20190048 50.07983382 617.6774876 80 622 C88.86533851 596.04142586 96.80154135 569.96745794 103.5625 543.375 C103.74493256 542.66479706 103.92736511 541.95459412 104.11532593 541.22286987 C104.62756563 539.22073823 105.12988217 537.21639834 105.62890625 535.2109375 C105.91838135 534.05899902 106.20785645 532.90706055 106.50610352 531.72021484 C107.2726446 529.04545245 107.2726446 529.04545245 106 527 Z M-139 535 C-139.70266495 535.16793564 -140.4053299 535.33587128 -141.12928772 535.50889587 C-149.37925731 537.4802729 -157.6297619 539.44940025 -165.8806076 541.41710663 C-168.05147658 541.93487085 -170.22230226 542.45281635 -172.39312744 542.97076416 C-200.70541267 549.72440985 -200.70541267 549.72440985 -214.83203125 552.96484375 C-216.22341057 553.28403023 -216.22341057 553.28403023 -217.64289856 553.60966492 C-221.8399513 554.57060315 -226.03836743 555.52514244 -230.23852539 556.47241211 C-230.97942917 556.6408815 -231.72033295 556.80935089 -232.48368835 556.98292542 C-234.42389863 557.4240929 -236.3649872 557.86139297 -238.30615234 558.29833984 C-240.90002645 558.73134507 -240.90002645 558.73134507 -242 560 C-241.22783901 583.16482983 -223.4002044 603.4131028 -207.296875 618.5390625 C-205.21973529 620.38758621 -203.1295243 622.21225121 -201 624 C-197.07857603 622.69285868 -196.09384179 620.37002483 -194.0625 617 C-190.6002219 611.43858515 -186.98565887 606.0252697 -183.1875 600.6875 C-182.68089844 599.9752124 -182.17429687 599.2629248 -181.65234375 598.52905273 C-180.61691512 597.07518183 -179.58077992 595.62181387 -178.54394531 594.16894531 C-177.02994379 592.04206525 -175.52490129 589.90918303 -174.0234375 587.7734375 C-169.45366588 581.2733183 -164.86152591 574.79270484 -160.18994141 568.36523438 C-154.9479535 561.14944064 -149.76969732 553.89187988 -144.6875 546.5625 C-144.11781494 545.75119629 -143.54812988 544.93989258 -142.96118164 544.10400391 C-142.44160889 543.34909668 -141.92203613 542.59418945 -141.38671875 541.81640625 C-140.69388794 540.81782593 -140.69388794 540.81782593 -139.98706055 539.79907227 C-138.75949518 537.90365232 -138.75949518 537.90365232 -139 535 Z M-123 541 C-124.76656964 542.89943983 -126.42123527 544.80887086 -128.0625 546.8125 C-128.55347168 547.40272949 -129.04444336 547.99295898 -129.55029297 548.60107422 C-131.0399571 550.3955191 -132.52103096 552.1967354 -134 554 C-134.79535156 554.96550781 -135.59070313 555.93101562 -136.41015625 556.92578125 C-138.61388957 559.61145978 -140.80807202 562.30468169 -143 565 C-144.39510034 566.70893198 -145.79095208 568.41725079 -147.1875 570.125 C-147.92871094 571.0325 -148.66992188 571.94 -149.43359375 572.875 C-151.3522762 575.21758632 -153.28537649 577.54777406 -155.22265625 579.875 C-162.8792345 589.08955914 -170.27141768 598.46240654 -177.49365234 608.02050781 C-178.94607832 609.92914149 -180.41570713 611.82270993 -181.89453125 613.7109375 C-182.34666992 614.29004883 -182.79880859 614.86916016 -183.26464844 615.46582031 C-184.46681577 617.00267682 -185.67270179 618.53662251 -186.87890625 620.0703125 C-189.20063078 623.27711434 -191.0936767 626.53317169 -193 630 C-191.45638057 631.32488132 -191.45638057 631.32488132 -189 632 C-186.15802873 631.31276453 -183.61703688 630.52215153 -180.890625 629.51171875 C-179.66365402 629.07758163 -179.66365402 629.07758163 -178.41189575 628.63467407 C-175.68599791 627.66639325 -172.96827886 626.67694785 -170.25 625.6875 C-168.32945315 625.00075714 -166.40838131 624.31548089 -164.48681641 623.6315918 C-160.41657197 622.18074762 -156.34940078 620.72169438 -152.28417969 619.25683594 C-146.07618511 617.02272952 -139.85624515 614.82348841 -133.6328125 612.6328125 C-110.70562756 604.55722326 -87.82097858 596.371132 -65 588 C-68.02393788 584.79972757 -71.56228334 582.74615216 -75.3125 580.5 C-91.83309906 570.36197693 -106.41918978 557.64846749 -119.07421875 542.984375 C-119.70972656 542.32953125 -120.34523438 541.6746875 -121 541 C-121.66 541 -122.32 541 -123 541 Z M-37 601 C-38.77751234 603.27803309 -38.77751234 603.27803309 -40.640625 606.23828125 C-40.99936203 606.78621338 -41.35809906 607.33414551 -41.72770691 607.89868164 C-42.50230536 609.08195189 -43.27410394 610.26705865 -44.04342651 611.45376587 C-46.06945558 614.57487653 -48.12121229 617.6788759 -50.17578125 620.78125 C-50.58679581 621.40203934 -50.99781036 622.02282867 -51.42127991 622.66242981 C-61.03881815 637.12698867 -71.57190315 651.27196941 -82.9375 664.421875 C-83.40961914 664.97174072 -83.88173828 665.52160645 -84.36816406 666.08813477 C-85.66769026 667.59223302 -86.98181498 669.08368293 -88.296875 670.57421875 C-88.85890625 671.37472656 -89.4209375 672.17523437 -90 673 C-89.67 673.99 -89.34 674.98 -89 676 C-74.63534569 672.6242652 -60.52261327 668.42824444 -46.375 664.25 C-43.81190121 663.49510181 -41.24875042 662.74038207 -38.68554688 661.98583984 C-34.06661969 660.62570389 -29.44819135 659.26389133 -24.83027267 657.90033531 C-17.87282873 655.84597636 -10.91315868 653.7993547 -3.9519043 651.75793457 C21.82029715 644.19763045 47.52184907 636.50553755 73 628 C73 627.67 73 627.34 73 627 C72.09572266 626.87471924 71.19144531 626.74943848 70.25976562 626.62036133 C34.68248938 621.65027174 0.83194539 614.48310588 -32.87475586 601.71508789 C-34.94220837 600.89369836 -34.94220837 600.89369836 -37 601 Z M-59 602 C-59.75949951 602.23372314 -60.51899902 602.46744629 -61.30151367 602.70825195 C-84.71019147 609.87057059 -108.27141147 616.45376222 -131.875 622.9375 C-133.01935328 623.25196768 -133.01935328 623.25196768 -134.1868248 623.57278824 C-139.37134978 624.99731763 -144.55649922 626.41955513 -149.7421875 627.83984375 C-150.40890661 628.02251423 -151.07562572 628.20518471 -151.76254845 628.39339066 C-161.16479087 630.96809656 -170.5780635 633.49851425 -180 636 C-180 636.99 -180 637.98 -180 639 C-154.98313011 654.04229797 -128.65278805 663.88046351 -101 673 C-100.44054687 672.02804687 -99.88109375 671.05609375 -99.3046875 670.0546875 C-92.7520953 658.75278985 -85.80234271 647.73230707 -78.75048828 636.73681641 C-75.50089307 631.65620799 -72.28590767 626.55370599 -69.07592773 621.44799805 C-66.96585412 618.09504885 -64.84807485 614.75069112 -62.6640625 611.4453125 C-61.68566406 609.95644531 -61.68566406 609.95644531 -60.6875 608.4375 C-60.13449219 607.61121094 -59.58148437 606.78492188 -59.01171875 605.93359375 C-58.67785156 605.29550781 -58.34398437 604.65742187 -58 604 C-58.495 603.01 -58.495 603.01 -59 602 Z M70.29443359 635.28466797 C25.61960582 657.07852949 -22.81090001 668.08897285 -71 679 C-68.03128942 680.643478 -65.39998559 681.44065633 -62.06274414 682.01806641 C-60.57516853 682.27982666 -60.57516853 682.27982666 -59.05754089 682.546875 C-57.97765396 682.72992187 -56.89776703 682.91296875 -55.78515625 683.1015625 C-54.64609329 683.29927246 -53.50703033 683.49698242 -52.33345032 683.70068359 C-48.57770769 684.34959503 -44.82028082 684.98800461 -41.0625 685.625 C-39.78199768 685.84387878 -38.50149536 686.06275757 -37.18218994 686.28826904 C-17.94018092 689.57493552 1.32636814 692.6871166 20.625 695.625 C21.75606171 695.79880188 22.88712341 695.97260376 24.05245972 696.15167236 C27.25532529 696.64192512 30.45936843 697.12342521 33.6640625 697.6015625 C35.06503426 697.81643311 35.06503426 697.81643311 36.49430847 698.03564453 C41.72643883 698.80226321 46.71178963 699.13780604 52 699 C55.27624928 692.76257863 57.83797602 686.42851992 60.2578125 679.81640625 C60.84150101 678.23399391 60.84150101 678.23399391 61.4369812 676.61961365 C62.25442904 674.39920364 63.06950347 672.17791856 63.88232422 669.95581055 C65.12087342 666.57376825 66.37049404 663.19596138 67.62109375 659.81835938 C68.41733952 657.65128877 69.21293424 655.48397883 70.0078125 653.31640625 C70.37866974 652.31613907 70.74952698 651.31587189 71.13162231 650.28529358 C73.21340533 644.56393669 74.81784588 638.97422388 76 633 C73.92861444 633 72.1209469 634.38640615 70.29443359 635.28466797 Z " fill="#AD1E22" transform="translate(724,0)"/>
<path d="M0 0 C9.14034746 45.78772011 8.82276001 94.76446826 3 141 C2.8981842 141.82052856 2.79636841 142.64105713 2.69146729 143.4864502 C-5.21069698 206.85478936 -24.29801142 265.5046647 -51.609375 323.06298828 C-52.98191591 325.96180625 -54.33658041 328.86839667 -55.6875 331.77734375 C-67.86403948 357.86403948 -67.86403948 357.86403948 -72 362 C-106.00265536 364.26189965 -141.46708579 358.27354192 -175 353 C-175.82111267 352.87131531 -176.64222534 352.74263062 -177.48822021 352.61004639 C-240.91733246 342.62814106 -308.96174809 327.85475757 -359 285 C-359.59151855 284.49355957 -360.18303711 283.98711914 -360.79248047 283.46533203 C-376.52434697 269.81704518 -391.20800955 252.7118949 -393.17578125 231.06640625 C-394.92125438 204.68482665 -381.54663047 184.24076702 -364.8125 165.125 C-360.71254655 160.6650148 -356.45761679 156.35878235 -352.1875 152.0625 C-351.54079346 151.41104004 -350.89408691 150.75958008 -350.2277832 150.08837891 C-349.30098755 149.16484619 -349.30098755 149.16484619 -348.35546875 148.22265625 C-347.80528076 147.67359619 -347.25509277 147.12453613 -346.68823242 146.55883789 C-342.8033497 142.97171191 -339.43297877 141.34253434 -334.375 139.75 C-328.50633554 137.74294115 -324.04870684 135.24716196 -319.1328125 131.515625 C-316.56708117 129.69235805 -314.0561478 128.72382448 -311 128 C-313.68345995 130.82437223 -316.37701563 133.04509989 -319.625 135.1875 C-325.19295193 139.02971244 -330.09945256 143.34666119 -335 148 C-335.47727539 148.44472656 -335.95455078 148.88945312 -336.44628906 149.34765625 C-353.13531061 164.96031745 -363.80189412 183.34740572 -371 205 C-336.25914252 195.24697111 -301.59413781 185.26144038 -267 175 C-268.42326559 170.63803563 -270.06068481 166.50071101 -271.9375 162.3125 C-278.99435903 146.19017611 -282.48184748 126.17645545 -277 109 C-274.70703986 106.34016624 -272.21306056 105.30115676 -269 104 C-267.22766049 103.04445506 -265.4568386 102.08609022 -263.6875 101.125 C-261.19921875 99.8203125 -261.19921875 99.8203125 -259 99 C-258.01 99.33 -257.02 99.66 -256 100 C-256.2165625 100.80824219 -256.2165625 100.80824219 -256.4375 101.6328125 C-261.12695265 122.40969297 -257.78376116 142.90352137 -249 162 C-243.37188537 154.2991866 -238.46614598 146.24271325 -233.6875 138 C-232.93019289 136.69964967 -232.17278625 135.3993573 -231.4152832 134.09912109 C-223.01301623 119.65254765 -214.96009221 105.0731596 -207.28393555 90.22705078 C-205.86353064 87.4806912 -204.43194241 84.74035798 -203 82 C-202.48759766 80.99952637 -201.97519531 79.99905273 -201.44726562 78.96826172 C-200.93357422 77.98744629 -200.41988281 77.00663086 -199.890625 75.99609375 C-199.43204102 75.10978271 -198.97345703 74.22347168 -198.50097656 73.31030273 C-195.65760324 68.93378326 -191.70080545 67.24784231 -187 65.25 C-185.96875 64.80140625 -184.9375 64.3528125 -183.875 63.890625 C-180.85615937 62.95544067 -179.90425645 63.1134539 -177 64 C-190.23172936 97.49947402 -205.23358268 130.20274179 -224 161 C-205.40715095 155.44684864 -187.03310072 149.37565803 -168.75 142.875 C-167.34870346 142.3787915 -167.34870346 142.3787915 -165.9190979 141.87255859 C-152.81577924 137.22454878 -139.87272341 132.25250291 -127 127 C-127.45249115 126.58503265 -127.9049823 126.17006531 -128.3711853 125.74252319 C-146.68474361 108.93347214 -166.38618926 88.4919786 -174 64 C-174 62.68 -174 61.36 -174 60 C-172.40084119 59.30093058 -170.79544955 58.61610532 -169.1875 57.9375 C-168.29417969 57.55464844 -167.40085937 57.17179687 -166.48046875 56.77734375 C-164 56 -164 56 -161 57 C-159.90014648 58.8190918 -159.90014648 58.8190918 -158.87109375 61.19921875 C-158.48123291 62.07199463 -158.09137207 62.94477051 -157.68969727 63.84399414 C-157.27647217 64.78235107 -156.86324707 65.72070801 -156.4375 66.6875 C-149.76802161 81.20933615 -141.10735247 92.59695691 -130 104 C-129.49694336 104.51820313 -128.99388672 105.03640625 -128.47558594 105.5703125 C-123.24010733 111.46028627 -123.24010733 111.46028627 -117 116 C-116.88970459 115.41516846 -116.77940918 114.83033691 -116.66577148 114.2277832 C-115.56328834 108.53562086 -114.26119591 102.92202743 -112.8425293 97.30102539 C-107.54129576 76.14089039 -105.46903033 55.79565822 -105 34 C-99.95859836 31.18467181 -95.77378925 29.4811491 -90 29 C-89.31713701 56.22697299 -93.15213765 81.38647125 -99.2578125 107.80859375 C-99.49831833 108.8552269 -99.49831833 108.8552269 -99.74368286 109.92300415 C-100.87910184 114.75820367 -100.87910184 114.75820367 -102 117 C-55.1516836 98.29145697 -55.1516836 98.29145697 -15 69 C-15.84949219 68.73703125 -16.69898438 68.4740625 -17.57421875 68.203125 C-21.12880362 66.95476452 -24.45613602 65.44352186 -27.8125 63.75 C-28.49135254 63.40775391 -29.17020508 63.06550781 -29.86962891 62.71289062 C-45.19156426 54.8817541 -60.11342185 46.27692941 -74.80303955 37.32250977 C-75.97309239 36.60928368 -77.14443584 35.89817042 -78.31707764 35.18920898 C-79.94664871 34.20171722 -81.56922008 33.20270186 -83.19140625 32.203125 C-84.12154541 31.63239258 -85.05168457 31.06166016 -86.01000977 30.47363281 C-86.66670654 29.98733398 -87.32340332 29.50103516 -88 29 C-88 28.34 -88 27.68 -88 27 C-82.39054944 24.74858787 -77.97845374 23.11206724 -72 25 C-69.57015467 26.47542791 -67.31290725 28.1059017 -65.02734375 29.796875 C-61.49163709 32.36995701 -57.86200349 34.7562872 -54.1875 37.125 C-53.47537354 37.58463135 -52.76324707 38.0442627 -52.02954102 38.51782227 C-39.49408836 46.5701807 -26.79145248 54.36191394 -14 62 C-13.79870986 50.91319979 -14.36793601 40.08809416 -15.5 29.0625 C-17.21598173 12.05431867 -17.21598173 12.05431867 -17 4 C-14.91891315 3.32635339 -12.8350329 2.66133202 -10.75 2 C-9.58984375 1.62875 -8.4296875 1.2575 -7.234375 0.875 C-4 0 -4 0 0 0 Z M-20.1875 84.125 C-44.50930644 101.44440676 -70.44046481 116.400238 -97 130 C-95.78412007 133.6476398 -94.89130402 133.95489004 -91.65234375 135.85546875 C-90.29133545 136.65960205 -90.29133545 136.65960205 -88.90283203 137.47998047 C-87.92427246 138.04346191 -86.94571289 138.60694336 -85.9375 139.1875 C-84.93831543 139.76902832 -83.93913086 140.35055664 -82.90966797 140.94970703 C-74.76264131 145.64936225 -66.52414185 150.02885164 -58 154 C-57.37528809 154.29567871 -56.75057617 154.59135742 -56.10693359 154.89599609 C-47.79418502 158.80449856 -39.3248421 162.05271863 -30.625 165 C-29.70243408 165.31525635 -28.77986816 165.6305127 -27.8293457 165.95532227 C-26.54096802 166.37962524 -26.54096802 166.37962524 -25.2265625 166.8125 C-24.45908691 167.06644531 -23.69161133 167.32039063 -22.90087891 167.58203125 C-20.92615262 168.22510101 -20.92615262 168.22510101 -19 167 C-18.3697909 164.48694802 -18.3697909 164.48694802 -18 161.40234375 C-17.83604736 160.22019287 -17.67209473 159.03804199 -17.50317383 157.82006836 C-17.25410278 155.89819702 -17.25410278 155.89819702 -17 153.9375 C-16.91317963 153.28540558 -16.82635925 152.63331116 -16.73690796 151.9614563 C-13.52021561 127.79540333 -11.66743414 103.38816275 -12 79 C-14.60466679 79 -18.03386536 82.57012073 -20.1875 84.125 Z M-109 140 C-111.25324773 144.87400794 -113.33393811 149.78589332 -115.234375 154.80859375 C-120.39099891 168.4332639 -126.01169211 181.71084445 -132.25 194.875 C-132.58366577 195.57962372 -132.91733154 196.28424744 -133.2611084 197.01022339 C-137.71950244 206.40124742 -142.31833426 215.71838882 -147 225 C-143.0527289 224.32506142 -139.49031816 223.17169172 -135.7421875 221.76953125 C-135.13464127 221.54291809 -134.52709503 221.31630493 -133.90113831 221.08282471 C-131.89063406 220.33072732 -129.88266337 219.57214604 -127.875 218.8125 C-127.17593536 218.54911835 -126.47687073 218.28573669 -125.75662231 218.01437378 C-91.07046091 204.93627392 -56.25309573 191.42265486 -23 175 C-23.80684751 172.80921837 -23.80684751 172.80921837 -25.99584961 172.2890625 C-26.87249268 172.06992187 -27.74913574 171.85078125 -28.65234375 171.625 C-29.64298828 171.36759033 -30.63363281 171.11018066 -31.65429688 170.8449707 C-32.73775391 170.56613037 -33.82121094 170.28729004 -34.9375 170 C-58.86411912 163.53850575 -82.657449 154.21737862 -104.08203125 141.6484375 C-106.73165697 139.83604493 -106.73165697 139.83604493 -109 140 Z M-129 145 C-129.70044434 145.30067383 -130.40088867 145.60134766 -131.12255859 145.91113281 C-165.33207269 160.51793841 -200.255009 171.79703282 -236 182 C-230.61915629 190.40448295 -223.85982953 197.76377201 -216.19921875 204.16015625 C-214.58837672 205.50777009 -213.01203195 206.89691109 -211.45703125 208.30859375 C-200.06154166 218.43959044 -186.81039319 228.4639523 -173 235 C-158.89097908 211.76161261 -146.45389827 187.6426172 -135 163 C-134.5865332 162.11103027 -134.17306641 161.22206055 -133.74707031 160.30615234 C-132.69300047 158.02233434 -131.65368936 155.73284317 -130.625 153.4375 C-130.33238281 152.79458008 -130.03976562 152.15166016 -129.73828125 151.48925781 C-129.0957425 150.01883259 -128.53766906 148.51192538 -128 147 C-128.495 146.01 -128.495 146.01 -129 145 Z M-23 182 C-23.825 182.4846875 -24.65 182.969375 -25.5 183.46875 C-33.62350544 188.2013879 -41.88005272 192.57941012 -50.33203125 196.69921875 C-52.29176047 197.65469434 -54.24986082 198.61351268 -56.20703125 199.57421875 C-88.09481368 215.21927187 -120.52346216 229.62775637 -153 244 C-149.38308489 248.04698395 -144.67772393 249.52780896 -139.75 251.5625 C-138.69586914 251.99796143 -137.64173828 252.43342285 -136.55566406 252.88208008 C-108.52331039 264.20190048 -78.92016618 272.6774876 -49 277 C-40.13466149 251.04142586 -32.19845865 224.96745794 -25.4375 198.375 C-25.25506744 197.66479706 -25.07263489 196.95459412 -24.88467407 196.22286987 C-24.37243437 194.22073823 -23.87011783 192.21639834 -23.37109375 190.2109375 C-23.08161865 189.05899902 -22.79214355 187.90706055 -22.49389648 186.72021484 C-21.7273554 184.04545245 -21.7273554 184.04545245 -23 182 Z M-268 190 C-268.70266495 190.16793564 -269.4053299 190.33587128 -270.12928772 190.50889587 C-278.37925731 192.4802729 -286.6297619 194.44940025 -294.8806076 196.41710663 C-297.05147658 196.93487085 -299.22230226 197.45281635 -301.39312744 197.97076416 C-329.70541267 204.72440985 -329.70541267 204.72440985 -343.83203125 207.96484375 C-345.22341057 208.28403023 -345.22341057 208.28403023 -346.64289856 208.60966492 C-350.8399513 209.57060315 -355.03836743 210.52514244 -359.23852539 211.47241211 C-359.97942917 211.6408815 -360.72033295 211.80935089 -361.48368835 211.98292542 C-363.42389863 212.4240929 -365.3649872 212.86139297 -367.30615234 213.29833984 C-369.90002645 213.73134507 -369.90002645 213.73134507 -371 215 C-370.22783901 238.16482983 -352.4002044 258.4131028 -336.296875 273.5390625 C-334.21973529 275.38758621 -332.1295243 277.21225121 -330 279 C-326.07857603 277.69285868 -325.09384179 275.37002483 -323.0625 272 C-319.6002219 266.43858515 -315.98565887 261.0252697 -312.1875 255.6875 C-311.68089844 254.9752124 -311.17429687 254.2629248 -310.65234375 253.52905273 C-309.61691512 252.07518183 -308.58077992 250.62181387 -307.54394531 249.16894531 C-306.02994379 247.04206525 -304.52490129 244.90918303 -303.0234375 242.7734375 C-298.45366588 236.2733183 -293.86152591 229.79270484 -289.18994141 223.36523438 C-283.9479535 216.14944064 -278.76969732 208.89187988 -273.6875 201.5625 C-273.11781494 200.75119629 -272.54812988 199.93989258 -271.96118164 199.10400391 C-271.44160889 198.34909668 -270.92203613 197.59418945 -270.38671875 196.81640625 C-269.69388794 195.81782593 -269.69388794 195.81782593 -268.98706055 194.79907227 C-267.75949518 192.90365232 -267.75949518 192.90365232 -268 190 Z M-252 196 C-253.76656964 197.89943983 -255.42123527 199.80887086 -257.0625 201.8125 C-257.55347168 202.40272949 -258.04444336 202.99295898 -258.55029297 203.60107422 C-260.0399571 205.3955191 -261.52103096 207.1967354 -263 209 C-263.79535156 209.96550781 -264.59070313 210.93101562 -265.41015625 211.92578125 C-267.61388957 214.61145978 -269.80807202 217.30468169 -272 220 C-273.39510034 221.70893198 -274.79095208 223.41725079 -276.1875 225.125 C-276.92871094 226.0325 -277.66992188 226.94 -278.43359375 227.875 C-280.3522762 230.21758632 -282.28537649 232.54777406 -284.22265625 234.875 C-291.8792345 244.08955914 -299.27141768 253.46240654 -306.49365234 263.02050781 C-307.94607832 264.92914149 -309.41570713 266.82270993 -310.89453125 268.7109375 C-311.34666992 269.29004883 -311.79880859 269.86916016 -312.26464844 270.46582031 C-313.46681577 272.00267682 -314.67270179 273.53662251 -315.87890625 275.0703125 C-318.20063078 278.27711434 -320.0936767 281.53317169 -322 285 C-320.45638057 286.32488132 -320.45638057 286.32488132 -318 287 C-315.15802873 286.31276453 -312.61703688 285.52215153 -309.890625 284.51171875 C-308.66365402 284.07758163 -308.66365402 284.07758163 -307.41189575 283.63467407 C-304.68599791 282.66639325 -301.96827886 281.67694785 -299.25 280.6875 C-297.32945315 280.00075714 -295.40838131 279.31548089 -293.48681641 278.6315918 C-289.41657197 277.18074762 -285.34940078 275.72169438 -281.28417969 274.25683594 C-275.07618511 272.02272952 -268.85624515 269.82348841 -262.6328125 267.6328125 C-239.70562756 259.55722326 -216.82097858 251.371132 -194 243 C-197.02393788 239.79972757 -200.56228334 237.74615216 -204.3125 235.5 C-220.83309906 225.36197693 -235.41918978 212.64846749 -248.07421875 197.984375 C-248.70972656 197.32953125 -249.34523438 196.6746875 -250 196 C-250.66 196 -251.32 196 -252 196 Z M-166 256 C-167.77751234 258.27803309 -167.77751234 258.27803309 -169.640625 261.23828125 C-169.99936203 261.78621338 -170.35809906 262.33414551 -170.72770691 262.89868164 C-171.50230536 264.08195189 -172.27410394 265.26705865 -173.04342651 266.45376587 C-175.06945558 269.57487653 -177.12121229 272.6788759 -179.17578125 275.78125 C-179.58679581 276.40203934 -179.99781036 277.02282867 -180.42127991 277.66242981 C-190.03881815 292.12698867 -200.57190315 306.27196941 -211.9375 319.421875 C-212.40961914 319.97174072 -212.88173828 320.52160645 -213.36816406 321.08813477 C-214.66769026 322.59223302 -215.98181498 324.08368293 -217.296875 325.57421875 C-217.85890625 326.37472656 -218.4209375 327.17523437 -219 328 C-218.67 328.99 -218.34 329.98 -218 331 C-203.63534569 327.6242652 -189.52261327 323.42824444 -175.375 319.25 C-172.81190121 318.49510181 -170.24875042 317.74038207 -167.68554688 316.98583984 C-163.06661969 315.62570389 -158.44819135 314.26389133 -153.83027267 312.90033531 C-146.87282873 310.84597636 -139.91315868 308.7993547 -132.9519043 306.75793457 C-107.17970285 299.19763045 -81.47815093 291.50553755 -56 283 C-56 282.67 -56 282.34 -56 282 C-56.90427734 281.87471924 -57.80855469 281.74943848 -58.74023438 281.62036133 C-94.31751062 276.65027174 -128.16805461 269.48310588 -161.87475586 256.71508789 C-163.94220837 255.89369836 -163.94220837 255.89369836 -166 256 Z M-188 257 C-188.75949951 257.23372314 -189.51899902 257.46744629 -190.30151367 257.70825195 C-213.71019147 264.87057059 -237.27141147 271.45376222 -260.875 277.9375 C-262.01935328 278.25196768 -262.01935328 278.25196768 -263.1868248 278.57278824 C-268.37134978 279.99731763 -273.55649922 281.41955513 -278.7421875 282.83984375 C-279.40890661 283.02251423 -280.07562572 283.20518471 -280.76254845 283.39339066 C-290.16479087 285.96809656 -299.5780635 288.49851425 -309 291 C-309 291.99 -309 292.98 -309 294 C-283.98313011 309.04229797 -257.65278805 318.88046351 -230 328 C-229.44054687 327.02804687 -228.88109375 326.05609375 -228.3046875 325.0546875 C-221.7520953 313.75278985 -214.80234271 302.73230707 -207.75048828 291.73681641 C-204.50089307 286.65620799 -201.28590767 281.55370599 -198.07592773 276.44799805 C-195.96585412 273.09504885 -193.84807485 269.75069112 -191.6640625 266.4453125 C-190.68566406 264.95644531 -190.68566406 264.95644531 -189.6875 263.4375 C-189.13449219 262.61121094 -188.58148437 261.78492188 -188.01171875 260.93359375 C-187.67785156 260.29550781 -187.34398437 259.65742187 -187 259 C-187.495 258.01 -187.495 258.01 -188 257 Z M-58.70556641 290.28466797 C-103.38039418 312.07852949 -151.81090001 323.08897285 -200 334 C-197.03128942 335.643478 -194.39998559 336.44065633 -191.06274414 337.01806641 C-189.57516853 337.27982666 -189.57516853 337.27982666 -188.05754089 337.546875 C-186.97765396 337.72992187 -185.89776703 337.91296875 -184.78515625 338.1015625 C-183.64609329 338.29927246 -182.50703033 338.49698242 -181.33345032 338.70068359 C-177.57770769 339.34959503 -173.82028082 339.98800461 -170.0625 340.625 C-168.78199768 340.84387878 -167.50149536 341.06275757 -166.18218994 341.28826904 C-146.94018092 344.57493552 -127.67363186 347.6871166 -108.375 350.625 C-107.24393829 350.79880188 -106.11287659 350.97260376 -104.94754028 351.15167236 C-101.74467471 351.64192512 -98.54063157 352.12342521 -95.3359375 352.6015625 C-93.93496574 352.81643311 -93.93496574 352.81643311 -92.50569153 353.03564453 C-87.27356117 353.80226321 -82.28821037 354.13780604 -77 354 C-73.72375072 347.76257863 -71.16202398 341.42851992 -68.7421875 334.81640625 C-68.15849899 333.23399391 -68.15849899 333.23399391 -67.5630188 331.61961365 C-66.74557096 329.39920364 -65.93049653 327.17791856 -65.11767578 324.95581055 C-63.87912658 321.57376825 -62.62950596 318.19596138 -61.37890625 314.81835938 C-60.58266048 312.65128877 -59.78706576 310.48397883 -58.9921875 308.31640625 C-58.62133026 307.31613907 -58.25047302 306.31587189 -57.86837769 305.28529358 C-55.78659467 299.56393669 -54.18215412 293.97422388 -53 288 C-55.07138556 288 -56.8790531 289.38640615 -58.70556641 290.28466797 Z " fill="#DBDDE0" transform="translate(853,345)"/>
<path d="M0 0 C1.9480957 -0.02416992 1.9480957 -0.02416992 3.93554688 -0.04882812 C28.81036389 -0.0611975 50.90058162 8.81972327 68.6875 26.3125 C92.07176672 52.17148206 94.89844768 86.14572667 93.6875 119.3125 C92.85414698 135.09008924 88.07428169 148.6331487 80.68701172 162.44042969 C79.78476141 164.13033085 78.90834789 165.83396487 78.03515625 167.5390625 C67.47514655 187.10993621 50.0012611 199.89624642 29.0859375 206.6484375 C26.6875 207.3125 26.6875 207.3125 24.6875 207.3125 C29.91266896 214.11142952 35.4364542 220.31883282 41.5625 226.3125 C42.37243408 227.11486084 43.18236816 227.91722168 44.0168457 228.74389648 C46.56886557 231.2717453 49.1273345 233.79290305 51.6875 236.3125 C55.08900657 239.66098624 58.48393417 243.01594463 61.875 246.375 C63.0513501 247.52645508 63.0513501 247.52645508 64.25146484 248.70117188 C64.96641113 249.40951172 65.68135742 250.11785156 66.41796875 250.84765625 C67.05114014 251.470354 67.68431152 252.09305176 68.33666992 252.73461914 C69.6875 254.3125 69.6875 254.3125 69.6875 256.3125 C64.58335885 256.58633964 59.48356263 256.78484244 54.3737793 256.91674805 C52.63994842 256.97176213 50.90662088 257.04661011 49.17456055 257.14233398 C34.79198698 257.9167484 34.79198698 257.9167484 29.65039062 253.99731445 C27.3778857 251.20758478 25.54954516 248.38569267 23.6875 245.3125 C22.18122541 243.55241752 20.64334859 241.81841997 19.0625 240.125 C16.38999963 237.1884918 13.733787 234.24330209 11.125 231.25 C10.56683594 230.61320313 10.00867188 229.97640625 9.43359375 229.3203125 C8.18652185 227.88631931 6.95075283 226.44246457 5.72265625 224.9921875 C5.05105469 224.21101562 4.37945312 223.42984375 3.6875 222.625 C3.089375 221.91988281 2.49125 221.21476563 1.875 220.48828125 C-5.02820525 213.62205746 -11.44792639 211.94238254 -20.8125 209.875 C-40.65757026 205.1890571 -56.50786592 198.85233575 -71.3125 184.3125 C-72.07433594 183.57515625 -72.83617187 182.8378125 -73.62109375 182.078125 C-84.01096832 171.34612285 -90.66361132 157.70829803 -94.3125 143.3125 C-94.50714844 142.56419922 -94.70179688 141.81589844 -94.90234375 141.04492188 C-100.28300657 119.39918356 -101.25760862 92.97611548 -95.3125 71.3125 C-95.11914062 70.59674805 -94.92578125 69.88099609 -94.7265625 69.14355469 C-88.34919904 46.20276113 -75.441318 25.37764765 -54.43603516 13.22705078 C-37.06628674 3.58861895 -19.81327298 -0.04872915 0 0 Z M-49.3125 42.3125 C-49.92738281 42.91578125 -50.54226562 43.5190625 -51.17578125 44.140625 C-69.05895244 63.05156465 -71.96793713 87.14064404 -71.5625 112.125 C-71.17033865 124.87808695 -69.18767683 136.85108947 -63.3125 148.3125 C-62.82007813 149.29476562 -62.32765625 150.27703125 -61.8203125 151.2890625 C-53.14780161 167.34773098 -39.38951442 180.00512086 -21.7890625 185.390625 C-4.09147278 189.65545063 17.87170925 186.90924647 33.84375 178.19921875 C51.10560773 166.74664006 60.18580485 149.91662028 64.92578125 130.13671875 C70.01397677 104.59136793 67.87600844 73.89830988 54.53515625 51.00390625 C44.15814601 35.88813446 30.68577014 27.63838759 12.921875 23.69921875 C-11.07181041 20.83040854 -31.83086792 24.86095678 -49.3125 42.3125 Z " fill="#221E1E" transform="translate(230.3125,778.6875)"/>
<path d="M0 0 C15.37212066 13.00002337 20.50946146 30.63532606 22.26953125 49.99609375 C22.26953125 57.91609375 22.26953125 65.83609375 22.26953125 73.99609375 C-27.72546875 74.49109375 -27.72546875 74.49109375 -78.73046875 74.99609375 C-75.89421589 86.3411052 -73.75086389 94.47067405 -67.73046875 103.99609375 C-67.33085938 104.63160156 -66.93125 105.26710938 -66.51953125 105.921875 C-60.46264217 114.23398873 -49.34313444 117.91198353 -39.73046875 119.99609375 C-23.33368694 122.34191071 -4.74352885 114.40729593 9.34375 106.9140625 C11.26953125 105.99609375 11.26953125 105.99609375 13.26953125 105.99609375 C13.26953125 113.91609375 13.26953125 121.83609375 13.26953125 129.99609375 C-7.25324757 141.1667202 -31.28528953 146.64540438 -54.35546875 141.03515625 C-72.73509999 135.37661237 -88.05808206 124.83154515 -97.3984375 107.98828125 C-103.93028088 94.86008245 -105.30640604 81.5443252 -105.16796875 67.05859375 C-105.1642627 66.35887451 -105.16055664 65.65915527 -105.15673828 64.93823242 C-104.98674919 42.36831674 -98.53033461 23.4122643 -82.71875 6.89453125 C-60.69695205 -14.19103499 -25.03805984 -18.37557182 0 0 Z M-62.92578125 20.90234375 C-70.89076817 29.26103724 -76.73046875 40.34176608 -76.73046875 51.99609375 C-52.64046875 51.99609375 -28.55046875 51.99609375 -3.73046875 51.99609375 C-5.159103 39.13838551 -8.08487157 27.03757149 -18.60546875 18.62109375 C-32.19041524 9.33290117 -50.33510995 9.96951885 -62.92578125 20.90234375 Z " fill="#221E1E" transform="translate(749.73046875,847.00390625)"/>
<path d="M0 0 C0.72574219 0.27714844 1.45148438 0.55429687 2.19921875 0.83984375 C14.19600056 5.95438531 23.98075654 18.02771698 28.8671875 29.85546875 C35.0274626 46.95554273 34 60.7911428 34 80 C0.67 80 -32.66 80 -67 80 C-61.27658404 103.41340769 -61.27658404 103.41340769 -45.25 120.25 C-32.63137754 127.24165156 -19.07888217 127.83049898 -5.25 124.3125 C3.06447384 121.80931266 11.58340628 119.18130791 19.0625 114.6875 C22 113 22 113 26 113 C26.14496508 116.77043032 26.23395607 120.54014742 26.3125 124.3125 C26.35439453 125.38435547 26.39628906 126.45621094 26.43945312 127.56054688 C26.45556641 128.58857422 26.47167969 129.61660156 26.48828125 130.67578125 C26.51446533 131.62364502 26.54064941 132.57150879 26.56762695 133.5480957 C26 136 26 136 23.63110352 137.75488281 C22.76283936 138.16577148 21.8945752 138.57666016 21 139 C20.14664062 139.41121094 19.29328125 139.82242188 18.4140625 140.24609375 C-1.37835972 148.70083994 -25.89363905 153.68637163 -46.8046875 146.390625 C-65.1239547 138.41793659 -79.57078065 128.13440611 -87.75 109.2421875 C-96.15152843 87.45072313 -96.50679182 59.33134551 -87.234375 37.76953125 C-79.10330624 20.00353476 -65.70925292 5.63936437 -47.1875 -1.3125 C-32.70367227 -6.38290941 -14.07005636 -6.20292807 0 0 Z M-55.26171875 32.53515625 C-60.89050669 40.51665107 -63.08879218 48.44396091 -65 58 C-40.91 58 -16.82 58 8 58 C6.87239276 46.72392762 4.55603248 35.165431 -4 27 C-20.66154071 14.66935646 -41.73094623 16.42423642 -55.26171875 32.53515625 Z " fill="#221E1E" transform="translate(1109,840)"/>
<path d="M0 0 C0 8.91 0 17.82 0 27 C-0.99 27.495 -0.99 27.495 -2 28 C-4.109375 27.14453125 -4.109375 27.14453125 -6.75 25.8125 C-13.28650607 22.71671414 -19.99919538 20.76316561 -27 19 C-27.75410156 18.80535156 -28.50820313 18.61070312 -29.28515625 18.41015625 C-41.86264754 16.50995972 -56.45268882 16.40101506 -67.35546875 23.54296875 C-74.57512598 29.2897633 -77.96330916 36.92496786 -79 46 C-79.14970623 54.79939925 -75.24439738 60.97550617 -69.375 67.25 C-60.50390197 76.04895032 -49.43060829 82.28942575 -38.84692383 88.78686523 C-18.95304089 101.02565492 0.66226219 114.34132428 7 138 C10.27711983 154.11250583 6.25984228 168.4521807 -2.3359375 182.125 C-11.64909455 194.31676923 -28.38465909 201.14287198 -43.05078125 203.62280273 C-48.09756257 204.2682727 -53.10497076 204.34011815 -58.1875 204.3125 C-59.83322998 204.30404053 -59.83322998 204.30404053 -61.51220703 204.29541016 C-77.23605602 204.0618304 -91.20024738 199.97078648 -106 195 C-107.20160344 184.53680693 -106.76405986 174.47349744 -106 164 C-101.49998717 165.35656789 -97.36347718 167.17647797 -93.125 169.17407227 C-76.28972893 177.06400161 -57.30658756 183.50898311 -38.75 177.375 C-36.26448008 176.29376585 -36.26448008 176.29376585 -34 175 C-33.25492188 174.5875 -32.50984375 174.175 -31.7421875 173.75 C-25.55435692 169.73133512 -22.44075622 163.91334815 -20.390625 156.921875 C-18.71307196 148.66831407 -21.02572307 141.93603405 -25.28515625 134.8671875 C-34.2503486 122.13112037 -48.5191655 114.1824818 -61.6875 106.4375 C-72.38700941 100.12305813 -82.05776217 92.6306616 -91 84 C-91.63679687 83.38898438 -92.27359375 82.77796875 -92.9296875 82.1484375 C-101.44814681 73.25138 -106.28306605 61.45982065 -107.3125 49.3125 C-106.77211424 34.15167716 -100.8599226 19.98488652 -90.30859375 9.11328125 C-66.78749402 -12.41787772 -27.842204 -11.1368816 0 0 Z " fill="#231E1E" transform="translate(623,786)"/>
<path d="M0 0 C0.67449188 0.00204437 1.34898376 0.00408875 2.04391479 0.00619507 C15.2819752 0.07139754 27.97207263 1.07030562 39.8125 7.4375 C39.84182572 10.62498029 39.85940739 13.81242528 39.875 17 C39.88337891 17.89525391 39.89175781 18.79050781 39.90039062 19.71289062 C39.91879571 24.73747943 39.67516398 29.48567291 38.8125 34.4375 C34.97885063 33.81131408 31.78754782 32.65078678 28.25 31.0625 C12.57497493 24.46449675 -4.78542338 21.92283394 -21.1875 27.4375 C-29.27811865 30.77474297 -33.65481578 35.47043244 -37.1875 43.4375 C-39.58484119 49.91963127 -40.25370992 56.23349472 -37.75 62.75 C-30.29368657 77.94545255 -14.00855048 86.8598796 -0.03710938 95.23974609 C18.11514043 106.19087884 38.96448723 119.17080706 45.8125 140.4375 C49.52098744 156.24625219 48.51010068 171.64426206 39.94433594 185.76220703 C30.37496219 199.92636636 15.0172754 207.03044481 -1.1875 210.75 C-22.74065394 214.0050951 -45.04595095 210.45240635 -65.1875 202.4375 C-66.1875 201.4375 -66.1875 201.4375 -66.30102539 198.57006836 C-66.29578857 197.31846924 -66.29055176 196.06687012 -66.28515625 194.77734375 C-66.2837413 194.11287735 -66.28232635 193.44841095 -66.28086853 192.7638092 C-66.27525518 190.63416101 -66.26270054 188.50461661 -66.25 186.375 C-66.24498671 184.93424631 -66.24042351 183.49349097 -66.23632812 182.05273438 C-66.22528145 178.51428898 -66.20800792 174.97590461 -66.1875 171.4375 C-62.65732778 172.02009696 -59.8421839 172.94270612 -56.66796875 174.58203125 C-38.58695977 183.69801623 -20.46010227 190.40113088 -0.125 184.8125 C7.45688488 182.08642903 12.75782066 178.88616194 16.75 171.75 C20.25102822 163.83411585 20.82961781 156.03822006 17.94140625 147.83984375 C10.53555414 132.07998546 -6.87292117 122.13511648 -21.4375 113.8125 C-40.67786346 102.76663046 -58.98814856 88.03555433 -66.1875 66.4375 C-67.29492827 54.07075039 -67.17779554 42.52425118 -61.1875 31.4375 C-60.69507813 30.51582031 -60.20265625 29.59414063 -59.6953125 28.64453125 C-51.71775336 14.65280187 -40.60651756 7.10514719 -25.2734375 2.5769043 C-16.78212162 0.46298901 -8.73215366 -0.06666594 0 0 Z " fill="#231E1E" transform="translate(66.1875,778.5625)"/>
<path d="M0 0 C8.91 0 17.82 0 27 0 C27 59.07 27 118.14 27 179 C53.73 179 80.46 179 108 179 C108 187.25 108 195.5 108 204 C72.36 204 36.72 204 0 204 C0 136.68 0 69.36 0 0 Z " fill="#221F1F" transform="translate(354,781)"/>
<path d="M0 0 C9.24 0 18.48 0 28 0 C32.26677201 11.12593126 36.1401121 22.31948738 39.83685303 33.64559937 C45.8268779 51.95979714 52.20384091 70.11054636 58.875 88.1875 C59.47532043 89.81520828 59.47532043 89.81520828 60.08776855 91.47579956 C61.21984005 94.54087877 62.35485818 97.60483694 63.4921875 100.66796875 C63.8331546 101.58664734 64.1741217 102.50532593 64.52542114 103.45184326 C64.8378476 104.2891095 65.15027405 105.12637573 65.47216797 105.98901367 C65.74447235 106.71932297 66.01677673 107.44963226 66.29733276 108.20207214 C66.99177752 110.05934972 66.99177752 110.05934972 68 112 C80.52231014 80.18210417 92.53059983 48.21691708 104.09613037 16.0402832 C104.60542084 14.62416748 104.60542084 14.62416748 105.125 13.17944336 C105.41632813 12.3679332 105.70765625 11.55642303 106.0078125 10.72032166 C107.31440417 7.13798503 108.66110423 3.57038872 110 0 C118.91 0 127.82 0 137 0 C136.17552441 4.12237794 135.17777659 7.3734595 133.63696289 11.23730469 C133.39521709 11.8469082 133.1534713 12.45651171 132.90439987 13.08458805 C132.09787872 15.11532534 131.28528439 17.1435746 130.47265625 19.171875 C129.89406355 20.62499369 129.31584058 22.07825964 128.73796082 23.53166199 C127.17584817 27.45727466 125.60841901 31.38074447 124.03993225 35.30381393 C122.40683456 39.39091134 120.77843219 43.47987882 119.14941406 47.56860352 C116.11524937 55.18174434 113.07639187 62.79300227 110.03527641 70.40336895 C107.72056577 76.19594326 105.40734707 81.98911089 103.09521484 87.78271484 C99.48236497 96.8351981 95.86706938 105.88670194 92.25 114.9375 C91.96588886 115.64853378 91.68177773 116.35956757 91.38905716 117.09214783 C89.76363086 121.15985768 88.13727043 125.22719144 86.50936317 129.29390907 C85.78460487 131.10491732 85.06064946 132.91624683 84.3367157 134.72758484 C83.90881241 135.79579971 83.48090912 136.86401459 83.04003906 137.96459961 C82.48174408 139.35974037 82.48174408 139.35974037 81.91217041 140.7830658 C81 143 81 143 80 145 C71.42 145 62.84 145 54 145 C39.42786089 108.54815939 25.62541637 71.82169644 12.1875 34.9375 C11.85670441 34.03078552 11.52590881 33.12407104 11.18508911 32.18988037 C7.292677 21.50954835 3.54215363 10.80188184 0 0 Z " fill="#221E1E" transform="translate(879,840)"/>
<path d="M0 0 C0.27561768 0.86351074 0.55123535 1.72702148 0.83520508 2.61669922 C13.27610762 41.35763382 29.77860999 77.51793005 49.67578125 112.98730469 C50.22621094 113.97891602 50.77664063 114.97052734 51.34375 115.9921875 C51.85099609 116.90081543 52.35824219 117.80944336 52.88085938 118.74560547 C54 121 54 121 54 123 C51.83514834 122.76447216 49.67286606 122.52192923 47.51171875 122.25390625 C45.06119526 121.95834977 45.06119526 121.95834977 42.83203125 122.02734375 C40.8125 122 40.8125 122 37 121 C31.45886598 114.80360415 27.90803334 106.45141751 24.125 99.125 C23.53203125 97.99835938 22.9390625 96.87171875 22.328125 95.7109375 C21.48894531 94.09445313 21.48894531 94.09445313 20.6328125 92.4453125 C20.12637207 91.47094238 19.61993164 90.49657227 19.09814453 89.49267578 C18 87 18 87 18 84 C12.67094974 87.82324648 7.38515436 91.67235268 2.23706055 95.73535156 C-0.47783263 97.86516326 -3.23041289 99.94198624 -6 102 C-6.53915039 102.40379883 -7.07830078 102.80759766 -7.63378906 103.22363281 C-15.77014001 109.1876808 -21.94649155 111.3715211 -32 110 C-35.07847553 109.47909291 -37.98102321 108.81870557 -41 108 C-41 107.34 -41 106.68 -41 106 C-39.20947266 104.70996094 -39.20947266 104.70996094 -36.6640625 103.234375 C-35.23803711 102.40317139 -35.23803711 102.40317139 -33.78320312 101.55517578 C-32.74099609 100.95946777 -31.69878906 100.36375977 -30.625 99.75 C-29.56474609 99.13753418 -28.50449219 98.52506836 -27.41210938 97.89404297 C-15.41291642 91.00905893 -3.22311433 84.47753649 9 78 C2.5413402 76.86874488 -3.92144367 75.85367029 -10.421875 74.9921875 C-40.96571418 70.93456782 -71.33823892 65.43825962 -101 57 C-100.46375 57.4640625 -99.9275 57.928125 -99.375 58.40625 C-92.94802761 64.07213356 -86.88754725 70.03756238 -80.88671875 76.15039062 C-77.06263541 80.02408782 -73.13047808 83.6741115 -69.00830078 87.22753906 C-65.54010101 90.28845936 -62.27154531 93.54420672 -59 96.8125 C-58.32066406 97.47958984 -57.64132812 98.14667969 -56.94140625 98.83398438 C-56.30074219 99.47271484 -55.66007813 100.11144531 -55 100.76953125 C-54.4225 101.34292236 -53.845 101.91631348 -53.25 102.50708008 C-52 104 -52 104 -52 106 C-52.99773437 105.85046875 -53.99546875 105.7009375 -55.0234375 105.546875 C-57.61529804 105.17381405 -60.17815114 104.88825783 -62.7890625 104.640625 C-64.05492187 104.51171875 -65.32078125 104.3828125 -66.625 104.25 C-68.53152344 104.07210937 -68.53152344 104.07210937 -70.4765625 103.890625 C-74.78511155 102.80154608 -76.15231394 101.36417813 -79 98 C-79.90853714 96.98018622 -80.8174056 95.96066755 -81.7265625 94.94140625 C-82.69571766 93.81769257 -83.66173603 92.69126777 -84.625 91.5625 C-85.14425049 90.95559326 -85.66350098 90.34868652 -86.19848633 89.72338867 C-90.73798909 84.37992242 -95.07284625 78.890408 -99.375 73.35546875 C-103.15821756 68.49555423 -107.07643895 63.74702448 -111 59 C-121.94404642 65.6240281 -132.09472966 74.6333106 -136 87 C-141.42493947 86.35417387 -145.91329807 85.32990729 -149.67578125 81.12890625 C-151.99093411 78.1175499 -153.79173571 75.62479288 -155 72 C-130.57058819 37.10084027 -65.53975295 20.44343901 -27.0625 6.5 C-26.15895782 6.16849945 -25.25541565 5.8369989 -24.32449341 5.49545288 C-21.75369034 4.55579017 -19.17709295 3.63440668 -16.59765625 2.71875 C-15.46728943 2.30282341 -15.46728943 2.30282341 -14.31408691 1.87849426 C-9.34674032 0.14865096 -5.25961011 -0.25810397 0 0 Z M-18.4375 11.75 C-19.05725708 11.99376373 -19.67701416 12.23752747 -20.31555176 12.48867798 C-38.91158525 19.82117064 -57.33243008 27.7430379 -75.06396484 36.99072266 C-77.27351476 38.14258638 -79.49055764 39.27948898 -81.70703125 40.41796875 C-83.28437973 41.23596652 -84.86121414 42.05495644 -86.4375 42.875 C-87.54955811 43.4477063 -87.54955811 43.4477063 -88.68408203 44.03198242 C-92.48708871 45.82136129 -92.48708871 45.82136129 -95 49 C-94.34522675 49.0972084 -93.69045349 49.19441681 -93.01583862 49.29457092 C-36.85247684 57.64348989 -36.85247684 57.64348989 -13.8125 61.9375 C-13.04234558 62.08043488 -12.27219116 62.22336975 -11.47869873 62.37063599 C-4.26793723 63.71590692 2.9121859 65.09704602 10 67 C9.62718564 65.60358131 9.25144541 64.20794421 8.875 62.8125 C8.60171875 61.79671875 8.3284375 60.7809375 8.046875 59.734375 C7.28018301 56.9994588 6.47998201 54.29042741 5.640625 51.578125 C1.17608708 36.9235572 -1.54308759 22.10918686 -4 7 C-8.86786556 7 -13.96811168 9.98925094 -18.4375 11.75 Z " fill="#D7D9DD" transform="translate(724,0)"/>
<path d="M0 0 C2.84625 0.020625 5.6925 0.04125 8.625 0.0625 C8.625 8.9725 8.625 17.8825 8.625 27.0625 C6.376875 26.52625 4.12875 25.99 1.8125 25.4375 C-6.59967351 23.65199196 -13.86813079 23.84537991 -21.5625 28.125 C-31.82877299 35.34084352 -37.55982532 45.5566266 -39.92501831 57.70930481 C-40.96237562 65.43953387 -40.86799057 73.28232822 -41.0078125 81.0703125 C-41.04901847 83.00659829 -41.09101302 84.94286745 -41.13375854 86.87911987 C-41.24351026 91.945622 -41.34262898 97.01227707 -41.43945312 102.07904053 C-41.54039102 107.26116349 -41.65149647 112.44306767 -41.76171875 117.625 C-41.97603648 127.77064589 -42.17910951 137.91648274 -42.375 148.0625 C-46.68748609 148.09136537 -50.99994762 148.10925255 -55.3125 148.125 C-56.54419922 148.13337891 -57.77589844 148.14175781 -59.04492188 148.15039062 C-60.21474609 148.15361328 -61.38457031 148.15683594 -62.58984375 148.16015625 C-63.67386475 148.16539307 -64.75788574 148.17062988 -65.87475586 148.17602539 C-68.375 148.0625 -68.375 148.0625 -69.375 147.0625 C-69.47366627 145.21719827 -69.50132156 143.36807912 -69.50198364 141.5201416 C-69.50480347 140.31698807 -69.50762329 139.11383453 -69.51052856 137.8742218 C-69.50858397 136.52877793 -69.50653579 135.1833342 -69.50439453 133.83789062 C-69.50574854 132.4305161 -69.50752847 131.02314193 -69.50970459 129.61576843 C-69.51427895 125.78322932 -69.51248935 121.95071701 -69.5093255 118.11817741 C-69.50680192 114.11609701 -69.50913944 110.11401897 -69.51071167 106.11193848 C-69.51253337 99.38988837 -69.51012705 92.66784923 -69.50537109 85.94580078 C-69.49992847 78.16311276 -69.50169113 70.38045093 -69.5071975 62.59776354 C-69.51172862 55.92771699 -69.51237918 49.25767834 -69.50975883 42.58763075 C-69.50819605 38.59864338 -69.50800232 34.60966835 -69.51129532 30.62068176 C-69.51417402 26.87134888 -69.51219837 23.12204992 -69.50640106 19.37272072 C-69.50507346 17.99279143 -69.50546759 16.61285931 -69.50766373 15.23293114 C-69.51037517 13.35690789 -69.50638046 11.48087845 -69.50198364 9.6048584 C-69.50160662 8.55254784 -69.50122959 7.50023727 -69.50084114 6.41603851 C-69.375 4.0625 -69.375 4.0625 -68.375 3.0625 C-66.46041718 2.96278214 -64.54217683 2.93169411 -62.625 2.9296875 C-61.4596875 2.92839844 -60.294375 2.92710937 -59.09375 2.92578125 C-57.8665625 2.92964844 -56.639375 2.93351563 -55.375 2.9375 C-53.53421875 2.93169922 -53.53421875 2.93169922 -51.65625 2.92578125 C-49.90828125 2.92771484 -49.90828125 2.92771484 -48.125 2.9296875 C-47.04734375 2.93081543 -45.9696875 2.93194336 -44.859375 2.93310547 C-42.375 3.0625 -42.375 3.0625 -41.375 4.0625 C-41.13798761 6.92127909 -40.95280818 9.76133297 -40.8125 12.625 C-40.76931641 13.43130859 -40.72613281 14.23761719 -40.68164062 15.06835938 C-40.57524738 17.06618805 -40.47459112 19.0643207 -40.375 21.0625 C-39.87871094 20.41023437 -39.38242187 19.75796875 -38.87109375 19.0859375 C-31.39321177 9.46543659 -24.85398138 3.1568517 -12.65234375 0.4609375 C-8.41700995 -0.05396601 -4.26084637 -0.04382629 0 0 Z M-42.375 23.0625 C-41.375 25.0625 -41.375 25.0625 -41.375 25.0625 Z " fill="#231F1F" transform="translate(864.375,836.9375)"/>
<path d="M0 0 C0.80211914 0.00249756 1.60423828 0.00499512 2.43066406 0.00756836 C3.94225098 0.02122437 3.94225098 0.02122437 5.484375 0.03515625 C8.701875 0.05578125 11.919375 0.07640625 15.234375 0.09765625 C15.564375 8.67765625 15.894375 17.25765625 16.234375 26.09765625 C7.234375 25.09765625 7.234375 25.09765625 3.234375 24.09765625 C-5.32748789 23.35956462 -12.35495165 25.81933652 -19.015625 31.28515625 C-28.62798363 40.413021 -33.20828262 52.05759637 -33.87086678 65.18232727 C-33.92648033 67.39136366 -33.95434564 69.59892152 -33.97094727 71.80859375 C-33.98579666 73.05392632 -33.98579666 73.05392632 -34.00094604 74.32441711 C-34.03227369 77.04046885 -34.05720353 79.756538 -34.08203125 82.47265625 C-34.10262566 84.36694771 -34.12362275 86.26123484 -34.14500427 88.15551758 C-34.19996821 93.12022367 -34.2494898 98.08496945 -34.29785156 103.04974365 C-34.3482551 108.12434383 -34.40384237 113.19888699 -34.45898438 118.2734375 C-34.56625147 128.21479666 -34.66728558 138.15620477 -34.765625 148.09765625 C-43.675625 148.09765625 -52.585625 148.09765625 -61.765625 148.09765625 C-61.765625 100.24765625 -61.765625 52.39765625 -61.765625 3.09765625 C-52.855625 3.09765625 -43.945625 3.09765625 -34.765625 3.09765625 C-34.435625 9.36765625 -34.105625 15.63765625 -33.765625 22.09765625 C-32.775625 20.59203125 -31.785625 19.08640625 -30.765625 17.53515625 C-23.34520698 7.02165817 -13.27717178 -0.08511008 0 0 Z " fill="#221E1E" transform="translate(1228.765625,836.90234375)"/>
<path d="M0 0 C4.29 0 8.58 0 13 0 C13.82242187 1.89878906 14.64484375 3.79757812 15.4921875 5.75390625 C16.03359768 7.0035047 16.57501872 8.25309844 17.11645508 9.50268555 C18.2942536 12.22121921 19.47105617 14.94018118 20.6472168 17.65942383 C23.44190777 24.117652 26.24556838 30.57120896 29.08984375 37.0078125 C29.55213379 38.05767334 30.01442383 39.10753418 30.49072266 40.18920898 C31.356998 42.15424917 32.2276137 44.11738295 33.10302734 46.07836914 C33.48797363 46.95356201 33.87291992 47.82875488 34.26953125 48.73046875 C34.77383667 49.86585083 34.77383667 49.86585083 35.28833008 51.02416992 C36 53 36 53 36 56 C36.66 56 37.32 56 38 56 C38.12799484 55.26328064 38.25598969 54.52656128 38.38786316 53.76751709 C38.95672557 51.195647 39.704142 49.10681078 40.79418945 46.71972656 C41.16159744 45.90828186 41.52900543 45.09683716 41.907547 44.26080322 C42.3054393 43.39614441 42.7033316 42.5314856 43.11328125 41.640625 C43.52410446 40.73681091 43.93492767 39.83299683 44.35820007 38.90179443 C45.67138147 36.01559191 46.99176094 33.13275078 48.3125 30.25 C49.18994369 28.32574445 50.06690199 26.40126749 50.94335938 24.4765625 C52.18570263 21.74856597 53.42869341 19.02089074 54.6756134 16.29498291 C57.15264918 10.87868668 59.58958744 5.44629242 62 0 C65.96 0 69.92 0 74 0 C74 24.09 74 48.18 74 73 C70.7 73 67.4 73 64 73 C63.67 56.17 63.34 39.34 63 22 C57.30115577 34.66847302 57.30115577 34.66847302 51.6027832 47.3371582 C47.75118441 55.89874951 43.89828714 64.45953467 40 73 C38.02 73 36.04 73 34 73 C31.84774839 68.30924483 29.69738096 63.61763169 27.54858398 58.92529297 C26.82088214 57.33685305 26.09270976 55.74862859 25.36401367 54.16064453 C20.4664915 43.48681773 15.66876895 32.77592865 11 22 C10.04482467 24.865526 9.84945802 26.76521321 9.79467773 29.74682617 C9.77473251 30.70759567 9.75478729 31.66836517 9.73423767 32.6582489 C9.70916893 34.20993523 9.70916893 34.20993523 9.68359375 35.79296875 C9.66281265 36.85413406 9.64203156 37.91529938 9.62062073 39.00862122 C9.55518762 42.40151437 9.49626907 45.7944855 9.4375 49.1875 C9.39430886 51.48633622 9.35069438 53.78516453 9.30664062 56.08398438 C9.19951255 61.72257615 9.09822732 67.36124643 9 73 C6.03 73 3.06 73 0 73 C0 48.91 0 24.82 0 0 Z " fill="#231E1E" transform="translate(7,688)"/>
<path d="M0 0 C6.44279319 3.94456726 10.84448258 7.50561675 13.40234375 14.8359375 C15.49626186 24.47539482 15.41168764 35.32261149 10.0625 43.875 C6.10178036 49.14927476 1.61889937 52.69442648 -4.9375 53.875 C-13.17092046 54.65357404 -20.95440252 54.76029453 -27.9375 49.875 C-33.58548463 44.84904011 -37.01756138 38.41849665 -37.9375 30.875 C-38.44523213 20.72035742 -36.61264874 12.78981922 -29.9375 4.875 C-21.93878729 -1.62395408 -9.80216846 -3.76492379 0 0 Z M-24.25 13.375 C-28.18763301 19.20853038 -27.47035864 26.09793872 -26.9375 32.875 C-25.73053629 37.39249274 -23.71835784 40.09414216 -20.4375 43.375 C-15.35505298 45.55319158 -10.39035815 45.68962618 -4.9375 44.875 C-0.80771778 42.86927482 1.39104692 40.77689739 3.3359375 36.5234375 C5.17272958 29.82803413 5.35029106 21.99881316 2.6953125 15.55859375 C0.49509997 11.94245497 -2.16796673 9.75976663 -5.9375 7.875 C-13.36178786 7.18064214 -18.9564659 7.65226043 -24.25 13.375 Z " fill="#221E1E" transform="translate(236.9375,708.125)"/>
<path d="M0 0 C6.6320373 4.4213582 9.8238966 9.65564777 11.53125 17.4140625 C12.75388721 26.16703346 11.60827286 34.87561357 6.484375 42.21484375 C1.48862543 48.22288994 -3.38467553 51.53468006 -11.33203125 52.3359375 C-19.6112205 52.42885769 -26.38753459 52.10448464 -32.7734375 46.421875 C-38.78401527 39.91285907 -41.40308488 32.14900589 -41.203125 23.30078125 C-40.37064995 13.87140037 -37.26768036 7.16729214 -30 1 C-21.62885896 -4.95638882 -8.72957054 -5.34463503 0 0 Z M-27.24609375 11.5546875 C-31.10577535 17.77825714 -30.82378499 24.93057979 -30 32 C-28.77983748 36.06492346 -26.53396831 38.47938089 -23.5 41.4375 C-18.3092676 43.75479125 -13.5859016 43.99454473 -8 43 C-4.16138926 41.00445279 -1.81353647 38.58309801 0.15625 34.75 C2.22502914 28.00731244 2.28822748 18.76834649 -0.625 12.25 C-2.84243177 8.72052383 -4.92712251 7.18483709 -9 6 C-16.47299622 5.12016885 -22.23758946 5.30583262 -27.24609375 11.5546875 Z " fill="#221F1F" transform="translate(339,710)"/>
<path d="M0 0 C1.17949219 0.01804687 2.35898437 0.03609375 3.57421875 0.0546875 C4.92966797 0.08949219 4.92966797 0.08949219 6.3125 0.125 C6.3125 3.425 6.3125 6.725 6.3125 10.125 C5.260625 9.939375 4.20875 9.75375 3.125 9.5625 C-0.90462933 8.90268033 -0.90462933 8.90268033 -5.6875 10.125 C-6.3475 15.075 -7.0075 20.025 -7.6875 25.125 C-3.7275 25.125 0.2325 25.125 4.3125 25.125 C4.3125 28.095 4.3125 31.065 4.3125 34.125 C0.3525 34.125 -3.6075 34.125 -7.6875 34.125 C-7.6875 48.645 -7.6875 63.165 -7.6875 78.125 C-10.9875 78.125 -14.2875 78.125 -17.6875 78.125 C-17.6875 63.605 -17.6875 49.085 -17.6875 34.125 C-20.3275 34.125 -22.9675 34.125 -25.6875 34.125 C-25.6875 31.155 -25.6875 28.185 -25.6875 25.125 C-23.0475 25.125 -20.4075 25.125 -17.6875 25.125 C-17.72230469 24.4959375 -17.75710938 23.866875 -17.79296875 23.21875 C-18.03247456 15.64580427 -17.25123489 10.07329512 -12.1875 4.25 C-7.82286909 0.54006373 -5.67695009 -0.11241485 0 0 Z " fill="#221E1E" transform="translate(379.6875,682.875)"/>
<path d="M0 0 C0 2.97 0 5.94 0 9 C-1.340625 8.67 -2.68125 8.34 -4.0625 8 C-8.98407791 6.91663379 -13.64246976 6.0328081 -18.4375 8 C-18.953125 8.33 -19.46875 8.66 -20 9 C-20.67012422 11.7859186 -20.67012422 11.7859186 -20 15 C-17.62339918 17.16745994 -14.84809195 18.53593951 -12 20 C-0.30460526 26.08618421 -0.30460526 26.08618421 2 33 C2.39614654 38.24894167 1.86557317 41.55342094 -1 46 C-5.09767823 50.34602236 -10.22951726 51.99643778 -16 53 C-21.61408821 53.06509088 -25.7576059 52.09695764 -31 50 C-31 46.37 -31 42.74 -31 39 C-28.40648731 40.03740508 -25.81442233 41.08013581 -23.25 42.1875 C-18.96244045 43.25938989 -15.31636381 42.70980205 -11 42 C-9.26729339 38.67769521 -9.26729339 38.67769521 -9.484375 35.07421875 C-12.13625076 31.44497641 -16.4457673 29.9846141 -20.4140625 28.08789062 C-25.33421064 25.63265922 -28.47565766 23.04868468 -31 18 C-31.54035594 13.0747885 -31.54435469 9.13058282 -29.375 4.625 C-21.33382975 -4.26260922 -10.41289546 -5.43281502 0 0 Z " fill="#221E1E" transform="translate(290,710)"/>
<path d="M0 0 C0 4.95 0 9.9 0 15 C4.29 15 8.58 15 13 15 C13 17.97 13 20.94 13 24 C8.71 24 4.42 24 0 24 C0.33 35.55 0.66 47.1 1 59 C4.96 59 8.92 59 13 59 C13.29296875 65.0546875 13.29296875 65.0546875 13 67 C8.53862011 69.97425326 4.23225066 69.49867492 -1 69 C-4.78986889 67.42088796 -6.83327915 65.46675336 -9 62 C-10.23180134 58.30459598 -10.12412112 54.89696622 -10.09765625 51.05078125 C-10.0962413 50.27816452 -10.09482635 49.50554779 -10.09336853 48.70951843 C-10.08777466 46.24380611 -10.07522333 43.77818485 -10.0625 41.3125 C-10.05748421 39.63997527 -10.05292144 37.96744912 -10.04882812 36.29492188 C-10.03780724 32.19657954 -10.02054684 28.09830521 -10 24 C-12.97 24 -15.94 24 -19 24 C-19 21.03 -19 18.06 -19 15 C-16.03 15 -13.06 15 -10 15 C-10 11.04 -10 7.08 -10 3 C-3.375 0 -3.375 0 0 0 Z " fill="#221F1F" transform="translate(406,693)"/>
<path d="M0 0 C0 3.63 0 7.26 0 11 C-1.11375 10.505 -2.2275 10.01 -3.375 9.5 C-8.26954719 7.68624049 -12.82976859 7.22793524 -18 8 C-22.85919771 10.33961371 -25.59324451 13.18648901 -28 18 C-29.71889456 25.47781868 -29.25844984 32.0911445 -25.375 38.8125 C-21.72595865 42.17345914 -17.88399547 43.91502039 -12.87890625 44.0625 C-8.5641762 43.6709933 -5.54592198 42.39871193 -2 40 C-1.34 40 -0.68 40 0 40 C0 43.3 0 46.6 0 50 C-7.29261904 54.26885017 -16.39563885 54.39016135 -24.50390625 52.37890625 C-30.60267906 49.69353662 -35.39672544 44.58178358 -38.1015625 38.5390625 C-40.79190702 30.36745531 -40.91656201 22.15531558 -38 14 C-34.0940432 6.66010535 -29.49784529 1.33670283 -21.4453125 -1.46484375 C-14.15689817 -3.05991206 -6.94929993 -2.61903045 0 0 Z " fill="#231E1E" transform="translate(158,709)"/>
<path d="M0 0 C0.66 0.33 1.32 0.66 2 1 C2 4.3 2 7.6 2 11 C-0.3203125 10.87625 -0.3203125 10.87625 -2.6875 10.75 C-6.2617922 10.76011115 -7.79232055 10.88750697 -11 12.625 C-15.02261846 17.40185942 -15.31321222 22.7729264 -15.4140625 28.8046875 C-15.43342865 29.5286673 -15.4527948 30.25264709 -15.4727478 30.99856567 C-15.53209886 33.29059398 -15.57874878 35.58267374 -15.625 37.875 C-15.66322087 39.43752081 -15.70227494 41.00002148 -15.7421875 42.5625 C-15.83776308 46.37483465 -15.92195606 50.1872678 -16 54 C-19.3 54 -22.6 54 -26 54 C-26 36.51 -26 19.02 -26 1 C-22.7 1 -19.4 1 -16 1 C-15.67 2.65 -15.34 4.3 -15 6 C-14.071875 5.195625 -13.14375 4.39125 -12.1875 3.5625 C-8.29988813 0.19323638 -5.09559828 -0.21683397 0 0 Z " fill="#221F1F" transform="translate(195,707)"/>
<path d="M0 0 C4.33924563 2.28498869 7.15317188 5.46843101 9 10 C9.72427331 14.63198048 9.44977085 18.11711647 7.3125 22.3125 C3.72162196 26.48568258 1.15591072 29.05480797 -4.375 29.9375 C-8.94765668 30.24133101 -12.01239495 29.37722609 -16 27 C-19.8962964 23.35780989 -21.7903921 20.34309771 -22.1328125 15.0859375 C-21.80266962 9.90075231 -20.19251877 6.13434713 -16.4375 2.5625 C-11.18286292 -0.8058571 -6.14338652 -0.8395177 0 0 Z M-10 3 C-10 3.33 -10 3.66 -10 4 C-8.72125 4.226875 -7.4425 4.45375 -6.125 4.6875 C-2.22128743 5.65479161 -2.22128743 5.65479161 -0.4375 8.4375 C0 11 0 11 -1 14 C-1.66 14.66 -2.32 15.32 -3 16 C-1.68 18.64 -0.36 21.28 1 24 C3.892153 21.66761855 4.92971633 20.25302121 5.9375 16.625 C6.02956995 11.28494293 4.37717161 8.4952149 0.8125 4.625 C-3.05294981 2.391629 -5.58359292 2.70058257 -10 3 Z M-16.0625 7 C-18.53498331 10.82836126 -18.76273153 13.55821048 -18 18 C-16.27032287 21.74547604 -16.27032287 21.74547604 -13 24 C-13 17.73 -13 11.46 -13 5 C-14.35917681 4.88397569 -14.35917681 4.88397569 -16.0625 7 Z M-9 8 C-9 9.65 -9 11.3 -9 13 C-7.35 12.67 -5.7 12.34 -4 12 C-4.33 10.68 -4.66 9.36 -5 8 C-6.32 8 -7.64 8 -9 8 Z M-9 17 C-9.144375 18.11375 -9.28875 19.2275 -9.4375 20.375 C-10 24 -10 24 -11 26 C-8.03 26 -5.06 26 -2 26 C-2 25.34 -2 24.68 -2 24 C-2.66 24 -3.32 24 -4 24 C-4.0825 23.21625 -4.165 22.4325 -4.25 21.625 C-4.72806339 18.85250896 -4.72806339 18.85250896 -7.0625 17.6875 C-7.701875 17.460625 -8.34125 17.23375 -9 17 Z " fill="#221E1E" transform="translate(445,698)"/>
<path d="M0 0 C4.06808493 1.99835751 6.64161491 4.15596555 9 8 C9.86448142 13.12657583 10.2042098 18.59960846 7.828125 23.3359375 C4.07841823 27.91676485 0.56188341 29.70997546 -5.3125 30.375 C-10.49647607 29.84781599 -14.82233226 28.4094643 -18.39453125 24.45703125 C-21.29912142 19.97185137 -21.58376119 16.25385075 -21 11 C-19.55355788 6.90174734 -17.48759542 3.61586337 -14.00390625 0.91796875 C-9.57015044 -1.11308898 -4.72310959 -0.70619883 0 0 Z M-12 5 C-10.82630859 5.09087891 -10.82630859 5.09087891 -9.62890625 5.18359375 C-8.11103516 5.30927734 -8.11103516 5.30927734 -6.5625 5.4375 C-5.04849609 5.55931641 -5.04849609 5.55931641 -3.50390625 5.68359375 C-1 6 -1 6 0 7 C0.04092937 9.33297433 0.04241723 11.66705225 0 14 C-0.99 14.495 -0.99 14.495 -2 15 C-0.8141763 18.37503669 0.27573689 20.64722731 3 23 C5.63574873 20.36425127 6.01066083 18.90557548 6.4375 15.125 C6.26938427 10.8340462 4.81127294 8.27981843 2 5 C-1.83205168 1.98910225 -8.52486208 1.52486208 -12 5 Z M-15 6.5625 C-17.65424784 9.79736455 -17.92939926 11.83455653 -18 16 C-17.30292695 18.68718999 -16.38355094 20.52937332 -15 23 C-14.01 23.33 -13.02 23.66 -12 24 C-12 17.73 -12 11.46 -12 5 C-13.29166136 4.89739266 -13.29166136 4.89739266 -15 6.5625 Z M-8 8 C-8 9.65 -8 11.3 -8 13 C-6.35 12.67 -4.7 12.34 -3 12 C-3 11.01 -3 10.02 -3 9 C-4.65 8.67 -6.3 8.34 -8 8 Z M-8 17 C-8 19.64 -8 22.28 -8 25 C-8.99 25.33 -9.98 25.66 -11 26 C-7.7 26 -4.4 26 -1 26 C-1.66 25.67 -2.32 25.34 -3 25 C-3.309375 23.845 -3.61875 22.69 -3.9375 21.5 C-4.288125 20.345 -4.63875 19.19 -5 18 C-5.99 17.67 -6.98 17.34 -8 17 Z " fill="#221F1F" transform="translate(1271,836)"/>
<path d="M0 0 C3.5 0.125 3.5 0.125 4.5 1.125 C4.59295815 2.56789787 4.61746513 4.01529785 4.61352539 5.46118164 C4.61344986 6.3820607 4.61337433 7.30293976 4.61329651 8.25172424 C4.60813522 9.25275681 4.60297394 10.25378937 4.59765625 11.28515625 C4.5962413 12.30475937 4.59482635 13.32436249 4.59336853 14.37486267 C4.58775097 17.64577107 4.5751955 20.91661213 4.5625 24.1875 C4.55748726 26.39908756 4.55292396 28.61067618 4.54882812 30.82226562 C4.53777583 36.25653654 4.52049944 41.69075684 4.5 47.125 C1.53 47.125 -1.44 47.125 -4.5 47.125 C-4.52464347 40.59220661 -4.54283291 34.05944002 -4.55493164 27.52661133 C-4.55997317 25.30232268 -4.56680623 23.07803737 -4.57543945 20.85375977 C-4.58751298 17.66421691 -4.59322996 14.47471771 -4.59765625 11.28515625 C-4.60281754 10.28412369 -4.60797882 9.28309113 -4.61329651 8.25172424 C-4.61337204 7.33084518 -4.61344757 6.40996613 -4.61352539 5.46118164 C-4.615746 4.64621719 -4.61796661 3.83125275 -4.62025452 2.99159241 C-4.40116007 -0.40919492 -3.51669647 0.1255963 0 0 Z " fill="#221E1E" transform="translate(102.5,710.875)"/>
<path d="M0 0 C2.475 0.495 2.475 0.495 5 1 C7.53306366 5.13752046 9.12418083 9.50675873 11 14 C13.31 9.38 15.62 4.76 18 0 C20.475 0.495 20.475 0.495 23 1 C23 8.26 23 15.52 23 23 C21.68 23 20.36 23 19 23 C18.67 19.04 18.34 15.08 18 11 C16.35 14.96 14.7 18.92 13 23 C12.01 23 11.02 23 10 23 C8.35 19.7 6.7 16.4 5 13 C4.67 16.3 4.34 19.6 4 23 C2.68 23 1.36 23 0 23 C0 15.41 0 7.82 0 0 Z " fill="#231E1E" transform="translate(819,685)"/>
<path d="M0 0 C4.95 0 9.9 0 15 0 C15.33 1.32 15.66 2.64 16 4 C15.67 4.33 15.34 4.66 15 5 C13.35 5 11.7 5 10 5 C9.67 10.94 9.34 16.88 9 23 C7.68 23 6.36 23 5 23 C4.67 17.06 4.34 11.12 4 5 C2.35 4.67 0.7 4.34 -1 4 C-0.67 2.68 -0.34 1.36 0 0 Z " fill="#231F1F" transform="translate(802,685)"/>
<path d="M0 0 C3.5625 0.375 3.5625 0.375 5.5625 2.0625 C6.84050253 5.01788086 6.64301862 6.36498383 5.5625 9.375 C4.4375 11.25 4.4375 11.25 2.5625 12.375 C-1 12.25 -1 12.25 -4.4375 11.375 C-6.4375 8.375 -6.4375 8.375 -6.1875 5.3125 C-5.10753599 1.08264094 -4.36622246 0.47631518 0 0 Z " fill="#231F1F" transform="translate(102.4375,684.625)"/>
<path d="M0 0 C0.66 0.33 1.32 0.66 2 1 C-0.23936248 2.70347226 -2.48959087 4.38737537 -4.75 6.0625 C-5.70132813 6.79049805 -5.70132813 6.79049805 -6.671875 7.53320312 C-7.290625 7.98759766 -7.909375 8.44199219 -8.546875 8.91015625 C-9.39523926 9.54642944 -9.39523926 9.54642944 -10.26074219 10.19555664 C-12.52945484 11.24488401 -13.69450903 10.81487181 -16 10 C-13.38321437 8.29948946 -10.75537761 6.61689493 -8.125 4.9375 C-7.37863281 4.45216797 -6.63226562 3.96683594 -5.86328125 3.46679688 C-5.14785156 3.01240234 -4.43242188 2.55800781 -3.6953125 2.08984375 C-3.03547363 1.66566162 -2.37563477 1.24147949 -1.69580078 0.80444336 C-1.13618652 0.53897705 -0.57657227 0.27351074 0 0 Z " fill="#D7C2C5" transform="translate(540,473)"/>
</svg>
