<?xml version="1.0" encoding="UTF-8"?>
<svg version="1.1" xmlns="http://www.w3.org/2000/svg" width="512" height="512">
<path d="M0 0 C53.46 21.285 53.46 21.285 108 43 C108 160.81 108 278.62 108 400 C101.79306814 403.10346593 95.7933537 406.02812526 89.3828125 408.57421875 C88.58381027 408.89575928 87.78480804 409.2172998 86.96159363 409.54858398 C85.24429442 410.23921822 83.52625133 410.92800523 81.80752563 411.61508179 C77.15609127 413.47462895 72.51015285 415.34783717 67.86328125 417.21875 C66.89748642 417.60713547 65.93169159 417.99552094 64.93663025 418.39567566 C53.11634406 423.15261043 41.328756 427.98930451 29.54034424 432.82455444 C24.4650537 434.90610701 19.38838828 436.98420596 14.30914307 439.05609131 C12.04081099 439.98331769 9.77502947 440.9165885 7.50927734 441.85009766 C6.14563884 442.40689652 4.78187694 442.96339332 3.41796875 443.51953125 C2.24387451 444.00139893 1.06978027 444.4832666 -0.13989258 444.97973633 C-3 446 -3 446 -6 446 C-7.35156675 444.34808509 -8.679762 442.67705908 -10 441 C-11.2127598 439.89595535 -12.44823615 438.8166038 -13.69932938 437.75619507 C-17.68123676 434.31566262 -21.4227924 430.70229027 -25.12322998 426.96337891 C-25.79286215 426.29107333 -26.46249432 425.61876776 -27.15241838 424.92608929 C-29.3732291 422.69529804 -31.59039179 420.46091684 -33.80761719 418.2265625 C-35.40794207 416.6177619 -37.00852989 415.00922282 -38.60935974 413.40092468 C-42.04431403 409.94930602 -45.47788341 406.49631763 -48.91051483 403.04238892 C-54.33497976 397.58524069 -59.7654589 392.13410474 -65.19732666 386.68432617 C-66.11493704 385.76362933 -67.03254741 384.84293249 -67.97796416 383.89433575 C-69.85337989 382.01261301 -71.72880425 380.13089888 -73.60423708 378.24919319 C-78.41177975 373.42540686 -83.21862201 368.60092298 -88.02490234 363.77587891 C-88.5067993 363.2921049 -88.98869625 362.80833089 -89.48519614 362.30989707 C-97.31537015 354.44875119 -105.13815902 346.58029076 -112.95875439 338.70961714 C-120.99555616 330.62179062 -129.04200119 322.54366371 -137.09663701 314.47359085 C-141.61605126 309.94477988 -146.130716 305.41144301 -150.63466644 300.86724854 C-154.86265974 296.60157926 -159.10197973 292.34751519 -163.35048103 288.10227394 C-164.91094346 286.53882695 -166.4670843 284.97105347 -168.01865196 283.39877892 C-170.12938102 281.26112674 -172.25476662 279.13923886 -174.38470459 277.02075195 C-175.00182084 276.38838938 -175.61893709 275.7560268 -176.25475383 275.10450172 C-178.12642044 273.20439771 -178.12642044 273.20439771 -181 271 C-184.26284771 271.43315289 -186.18109582 272.66941098 -188.73046875 274.703125 C-189.44211182 275.26459229 -190.15375488 275.82605957 -190.88696289 276.40454102 C-192.02572876 277.31804321 -192.02572876 277.31804321 -193.1875 278.25 C-194.81458002 279.53581979 -196.44219665 280.82096079 -198.0703125 282.10546875 C-198.8943457 282.75821777 -199.71837891 283.4109668 -200.56738281 284.08349609 C-204.20339678 286.94807956 -207.88019985 289.75781974 -211.5625 292.5625 C-212.96485404 293.63279902 -214.36719777 294.70311155 -215.76953125 295.7734375 C-216.46385254 296.30291992 -217.15817383 296.83240234 -217.87353516 297.37792969 C-221.50111378 300.14505166 -225.12562566 302.9161831 -228.75 305.6875 C-229.45874268 306.22938965 -230.16748535 306.7712793 -230.89770508 307.32958984 C-237.27489298 312.20709066 -243.63932118 317.10099232 -250 322 C-255.70813424 326.39641652 -261.41735273 330.79127135 -267.140625 335.16796875 C-268.21376953 335.98865845 -268.21376953 335.98865845 -269.30859375 336.82592773 C-270.7634162 337.93730446 -272.21913869 339.04750404 -273.67578125 340.15649414 C-277.07413564 342.74650584 -280.45652459 345.35108837 -283.796875 348.015625 C-284.38275391 348.47904297 -284.96863281 348.94246094 -285.57226562 349.41992188 C-287.14178499 350.66420905 -288.7039874 351.91771009 -290.265625 353.171875 C-293.09451019 355.06318681 -294.66139071 355.63631669 -298 356 C-300.195755 355.39894104 -300.195755 355.39894104 -302.4230957 354.36938477 C-303.26358963 353.98891495 -304.10408356 353.60844513 -304.970047 353.21644592 C-305.8629393 352.79568283 -306.7558316 352.37491974 -307.67578125 351.94140625 C-309.06351997 351.30669655 -309.06351997 351.30669655 -310.47929382 350.65916443 C-313.42969104 349.30621813 -316.37100806 347.93468402 -319.3125 346.5625 C-321.31258115 345.64133974 -323.31322621 344.7214028 -325.31445312 343.80273438 C-330.21626462 341.5493048 -335.11075571 339.28055755 -340 337 C-340.22812954 308.31127348 -340.40509763 279.6226539 -340.51065329 250.93319889 C-340.52316035 247.54612199 -340.53610357 244.15904688 -340.54931641 240.77197266 C-340.55193951 240.09766758 -340.55456261 239.4233625 -340.55726521 238.72862394 C-340.60077806 227.81043451 -340.67962248 216.89277163 -340.77152796 205.97489457 C-340.86504634 194.77197159 -340.91983951 183.56931163 -340.94088495 172.36597884 C-340.95393466 166.07301334 -340.98464957 159.78124202 -341.05730057 153.48865891 C-341.12511462 147.56711809 -341.14612919 141.64726455 -341.13107681 135.72537231 C-341.13383086 133.55084694 -341.15376349 131.37626591 -341.19205475 129.20207596 C-341.46787027 112.73520341 -341.46787027 112.73520341 -337.82001305 108.42298698 C-335.22207258 106.83146823 -332.90473834 105.88024385 -330 105 C-328.81933799 104.36835594 -327.65379063 103.70676442 -326.51318359 103.00537109 C-325.48531738 102.43383301 -324.45745117 101.86229492 -323.3984375 101.2734375 C-322.24859375 100.6340625 -321.09875 99.9946875 -319.9140625 99.3359375 C-319.04056152 98.85205566 -319.04056152 98.85205566 -318.14941406 98.35839844 C-316.36901678 97.37168404 -314.59068137 96.38132605 -312.8125 95.390625 C-306.93374679 92.1275867 -301.04659179 88.94118168 -295 86 C-272.4296875 103.5546875 -272.4296875 103.5546875 -270.20922852 105.28173828 C-268.72798097 106.43380152 -267.24669802 107.58581924 -265.76538086 108.73779297 C-261.95083217 111.70434165 -258.13694357 114.67173247 -254.32421875 117.640625 C-247.72798614 122.77594703 -241.13031163 127.9087193 -234.5 133 C-227.09711533 138.68452374 -219.73438129 144.42036757 -212.37011719 150.15478516 C-208.39374458 153.25052312 -204.41553085 156.34389338 -200.4375 159.4375 C-199.01952262 160.54035349 -197.60155359 161.64321772 -196.18359375 162.74609375 C-195.16434814 163.53089111 -195.16434814 163.53089111 -194.12451172 164.33154297 C-192.60022643 165.52862015 -191.09903189 166.75532358 -189.61376953 168.00048828 C-188.82470215 168.65130371 -188.03563477 169.30211914 -187.22265625 169.97265625 C-186.50988525 170.574729 -185.79711426 171.17680176 -185.06274414 171.79711914 C-183.11136165 173.21891684 -183.11136165 173.21891684 -181.05288774 172.73374325 C-177.53784277 171.47739568 -175.21676414 168.61935808 -172.64372253 166.01121521 C-172.00820963 165.37897114 -171.37269672 164.74672708 -170.71792585 164.0953241 C-168.58363776 161.96833667 -166.46026904 159.83077081 -164.33666992 157.69311523 C-162.81114817 156.16838411 -161.28497353 154.64430597 -159.75819397 153.12083435 C-155.60661435 148.97439905 -151.46445329 144.81866872 -147.3240068 140.66112018 C-142.98949033 136.31158165 -138.64688354 131.97013515 -134.30525208 127.62770081 C-127.00926321 120.32801594 -119.71893944 113.02271291 -112.43237305 105.71362305 C-103.09113816 96.3435717 -93.74071486 86.98274669 -84.38729382 77.62486172 C-76.33930581 69.57288518 -68.29558013 61.5166545 -60.25252748 53.45974851 C-57.67156881 50.87469952 -55.09003023 48.29023075 -52.50841331 45.70583916 C-48.44222256 41.63473403 -44.37870555 37.56097779 -40.31720543 33.48519325 C-38.82937735 31.99286365 -37.34072451 30.50135578 -35.85116959 29.01074982 C-33.8108693 26.96868755 -31.77367834 24.92357136 -29.73722839 22.87767029 C-29.15335883 22.29466721 -28.56948926 21.71166412 -27.96792668 21.11099428 C-23.78679932 16.90092316 -19.86592168 12.49992497 -16 8 C-14.52394582 6.29151521 -13.0281016 4.59959559 -11.5 2.9375 C-10.8090625 2.16277344 -10.118125 1.38804688 -9.40625 0.58984375 C-7 -1 -7 -1 0 0 Z M-14.375 140.0625 C-20.49506553 145.04885712 -26.7296205 149.84970143 -33.0625 154.5625 C-39.38729766 159.27559614 -45.65918148 164.03763079 -51.84179688 168.93554688 C-58.50050184 174.20474482 -65.26423613 179.33602861 -72.01611328 184.48486328 C-74.84988763 186.64907736 -77.67519486 188.82408893 -80.5 191 C-86.21399066 195.39977281 -91.94146209 199.78170575 -97.67236328 204.15942383 C-101.07562152 206.76002682 -104.47607424 209.36404192 -107.8671875 211.98046875 C-108.75954102 212.66882813 -108.75954102 212.66882813 -109.66992188 213.37109375 C-111.26760768 214.60458771 -112.8643083 215.83935743 -114.4609375 217.07421875 C-116.26403595 218.44179957 -118.11702012 219.74468008 -120 221 C-120 221.66 -120 222.32 -120 223 C-117.68164306 224.87052715 -115.34995527 226.63283963 -112.9375 228.375 C-107.38650426 232.45576201 -101.91702173 236.60192499 -96.5625 240.9375 C-90.63041099 245.72699666 -84.61147329 250.38820174 -78.54492188 255.00585938 C-71.08327723 260.68803321 -63.68463706 266.4498031 -56.28808594 272.21630859 C-42.33299134 283.09508806 -28.37684413 293.96955602 -14.25 304.625 C-13.54536621 305.15883301 -12.84073242 305.69266602 -12.11474609 306.24267578 C-9.32034475 308.80842167 -9.32034475 308.80842167 -6 310 C-6 252.25 -6 194.5 -6 135 C-9.45377749 135 -11.80649641 137.93634796 -14.375 140.0625 Z M-294 159 C-294.1320056 171.83282283 -294.262491 184.6656602 -294.39115143 197.49851704 C-294.45096936 203.46036333 -294.51126831 209.42220386 -294.57275391 215.3840332 C-294.96535269 251.69119241 -294.96535269 251.69119241 -295 288 C-290.39590367 284.14902009 -286.01832588 280.16072823 -281.78930664 275.90283203 C-281.21282379 275.32649521 -280.63634094 274.75015839 -280.04238892 274.15635681 C-278.16259405 272.27587265 -276.28635307 270.39188591 -274.41015625 268.5078125 C-273.09758569 267.19337426 -271.78479224 265.87915856 -270.4717865 264.56515503 C-267.03536398 261.12493488 -263.60195663 257.68172107 -260.16918945 254.237854 C-256.65824499 250.71663589 -253.1444283 247.19828651 -249.63085938 243.6796875 C-242.75110788 236.78924732 -235.87454145 229.89563795 -229 223 C-232.57673244 218.52908445 -236.42774604 214.59179517 -240.67504883 210.75854492 C-246.20113164 205.77002197 -251.51521061 200.60636193 -256.75720787 195.31795692 C-258.24714697 193.81493209 -259.74047112 192.3153379 -261.23457336 190.81645203 C-264.38844486 187.65134272 -267.53824608 184.48220284 -270.6875 181.3125 C-274.37983056 177.59651225 -278.07384091 173.88222383 -281.77201271 170.17204857 C-283.2437583 168.69382081 -284.71246913 167.21262257 -286.18107605 165.73127747 C-287.06322281 164.84582748 -287.94536957 163.9603775 -288.85424805 163.0480957 C-289.63301804 162.2640889 -290.41178802 161.48008209 -291.2141571 160.6723175 C-292.71388678 158.88607909 -292.71388678 158.88607909 -294 159 Z " fill="#B15CB6" transform="translate(375,37)"/>
<path d="M0 0 C0.33 0 0.66 0 1 0 C1.1168077 17.12424826 1.2049754 34.24837217 1.25906086 51.37292767 C1.28484134 59.32419338 1.31998855 67.27521154 1.37719727 75.22631836 C1.42703743 82.1566164 1.45929216 89.08673516 1.47044247 96.01720744 C1.47696035 99.68686002 1.49227483 103.35599973 1.52865028 107.0254879 C1.56893213 111.12228508 1.56994907 115.21819099 1.56762695 119.31518555 C1.58560333 120.53150665 1.60357971 121.74782776 1.62210083 123.00100708 C1.56582288 132.15130748 1.56582288 132.15130748 -1.41932678 135.19563293 C-2.27094894 135.79107407 -3.12257111 136.3865152 -4 137 C-4.61327148 137.51304687 -5.22654297 138.02609375 -5.85839844 138.5546875 C-6.72513184 139.20824219 -6.72513184 139.20824219 -7.609375 139.875 C-8.27348389 140.379104 -8.93759277 140.88320801 -9.62182617 141.40258789 C-10.32412354 141.92973389 -11.0264209 142.45687988 -11.75 143 C-13.26185448 144.14435195 -14.773569 145.28888883 -16.28515625 146.43359375 C-17.06004395 147.01866699 -17.83493164 147.60374023 -18.63330078 148.20654297 C-20.99135018 149.99344527 -23.33913018 151.79297482 -25.68359375 153.59765625 C-26.43866211 154.17837891 -27.19373047 154.75910156 -27.97167969 155.35742188 C-29.41196112 156.46572129 -30.85145871 157.57504035 -32.29003906 158.68554688 C-36.10532585 161.61351441 -39.96460684 164.38295654 -44 167 C-43.42082104 161.42618093 -42.39319121 156.30495613 -40.8125 150.9375 C-40.35893367 149.35336272 -39.90720129 147.76869952 -39.45703125 146.18359375 C-39.21936035 145.34683105 -38.98168945 144.51006836 -38.73681641 143.64794922 C-37.42908366 138.94825756 -36.21879856 134.22338379 -35 129.5 C-33.04034177 121.92726287 -31.01472149 114.37909363 -28.89453125 106.84985352 C-27.18136108 100.73304488 -25.58589558 94.58837991 -24 88.4375 C-22.28087318 81.77424736 -20.49545721 75.14831341 -18.5 68.5625 C-16.13033874 60.73401828 -14.18247237 52.81642104 -12.23266602 44.87451172 C-10.59701522 38.25939976 -8.80896393 31.71883461 -6.83520508 25.19750977 C-4.32390439 16.86154255 -2.17430574 8.42890438 0 0 Z " fill="#96529A" transform="translate(369,38)"/>
<path d="M0 0 C4.88193818 2.70250149 9.13106223 6.11948464 13.5 9.5625 C15.11305651 10.82580785 16.72633924 12.08882689 18.33984375 13.3515625 C19.13116699 13.97192383 19.92249023 14.59228516 20.73779297 15.23144531 C23.8326696 17.65096682 26.9448986 20.04737068 30.0625 22.4375 C32.04321325 23.95631853 34.02225837 25.47731397 36 27 C36.7374089 27.43217866 37.47481779 27.86435732 38.23457241 28.3096323 C41.90323806 30.65675026 44.5413559 32.46097418 45.81810188 36.74522209 C46.10876589 40.16445416 46.11353416 43.48128277 46.02172852 46.91186523 C46.02369987 48.84460548 46.02369987 48.84460548 46.02571106 50.81639099 C46.02828388 54.33353722 45.97554125 57.84789697 45.91254544 61.36439776 C45.85611635 65.04511893 45.85098402 68.7259107 45.84031677 72.40699768 C45.81239145 79.37015712 45.73860503 86.33203824 45.64817137 93.29463583 C45.547422 101.22433312 45.49805288 109.15409288 45.45291245 117.08427131 C45.35894822 133.39026143 45.20074314 149.69496736 45 166 C43.15517484 162.43850938 41.93023507 158.8422143 40.8125 155 C40.60109375 154.27868896 40.3896875 153.55737793 40.171875 152.81420898 C37.75328158 144.3914574 35.6885828 135.87896892 33.58935547 127.37231445 C31.78520013 120.07868047 29.89571516 112.82363119 27.84375 105.59619141 C26.13727525 99.56636846 24.5633292 93.5058484 23 87.4375 C21.2810195 80.77420165 19.49523352 74.14837967 17.5 67.5625 C15.14052727 59.75911478 13.18408134 51.87023296 11.23486328 43.95581055 C8.65920518 33.53127803 5.8120893 23.19323501 2.80078125 12.88671875 C2.24970703 10.99373047 2.24970703 10.99373047 1.6875 9.0625 C1.36136719 7.96035156 1.03523438 6.85820312 0.69921875 5.72265625 C0 3 0 3 0 0 Z " fill="#96529A" transform="translate(325,314)"/>
<path d="M0 0 C7.16653562 4.42810331 13.62696729 9.6293748 20.1640625 14.9140625 C23.61398734 17.7006067 27.10404478 20.42896656 30.625 23.125 C31.15319336 23.52944336 31.68138672 23.93388672 32.22558594 24.35058594 C33.28583738 25.16151922 34.34638278 25.97206832 35.40722656 26.78222656 C38.64394125 29.25689438 41.87190465 31.74302377 45.09692383 34.23291016 C47.95257249 36.43545374 50.82037569 38.61945736 53.70703125 40.78125 C54.3103125 41.23628906 54.91359375 41.69132812 55.53515625 42.16015625 C56.69925587 43.03770827 57.86710805 43.91030958 59.0390625 44.77734375 C60.39629034 45.80452611 61.70377785 46.89683221 63 48 C63 48.66 63 49.32 63 50 C61.13728377 51.59236985 59.28343897 53.05356647 57.3125 54.5 C56.78205078 54.90347656 56.25160156 55.30695313 55.70507812 55.72265625 C49.41358166 60.40075056 49.41358166 60.40075056 46 61 C43.62305582 59.59992578 41.86109275 58.29444625 39.8125 56.5 C38.56479705 55.4636447 37.31604799 54.42854791 36.06640625 53.39453125 C35.40656738 52.83975098 34.74672852 52.2849707 34.06689453 51.71337891 C30.53092211 48.78218892 26.88583361 45.99306351 23.25 43.1875 C21.72486097 42.00311836 20.200126 40.81821623 18.67578125 39.6328125 C17.90959473 39.03758789 17.1434082 38.44236328 16.35400391 37.82910156 C12.38066069 34.74174548 8.4091773 31.65199866 4.4375 28.5625 C3.01953988 27.45962433 1.60157141 26.35675938 0.18359375 25.25390625 C-4.2109375 21.8359375 -8.60546875 18.41796875 -13 15 C-11.16307611 10.99625569 -8.50882084 8.28042066 -5.375 5.25 C-4.859375 4.74339844 -4.34375 4.23679688 -3.8125 3.71484375 C-2.54616661 2.47196098 -1.2736856 1.23534724 0 0 Z " fill="#945098" transform="translate(207,198)"/>
<path d="M0 0 C3.93214301 1.58939426 6.33020346 4.16342502 9.25 7.1875 C12.25654198 10.2939704 15.25912846 13.25644455 18.546875 16.0625 C24.04237242 20.81661387 29.14942842 25.96338595 34.28466797 31.09936523 C36.01903314 32.83150876 37.76129591 34.5554531 39.50390625 36.27929688 C40.60725787 37.37972022 41.71014039 38.48061416 42.8125 39.58203125 C43.33424805 40.09659378 43.85599609 40.61115631 44.39355469 41.14131165 C48 44.77113122 48 44.77113122 48 47 C45.8664718 48.78770907 43.73155942 50.46872824 41.5 52.125 C40.87996094 52.59292969 40.25992188 53.06085938 39.62109375 53.54296875 C38.08497483 54.70096609 36.54301941 55.85121357 35 57 C29.28299462 52.24863726 24.02310577 47.15385413 18.78515625 41.8828125 C17.92941513 41.02565643 17.07367401 40.16850037 16.19200134 39.28536987 C13.47979535 36.56760046 10.7711017 33.84636109 8.0625 31.125 C6.21572631 29.27320658 4.36872347 27.42164166 2.52148438 25.5703125 C-1.98833201 21.04951565 -6.49527569 16.52587054 -11 12 C-10.06122074 10.8934059 -9.12079084 9.78821201 -8.1796875 8.68359375 C-7.39440674 7.76018188 -7.39440674 7.76018188 -6.59326172 6.81811523 C-4.4984209 4.42763415 -2.28027529 2.21320837 0 0 Z " fill="#945098" transform="translate(145,260)"/>
<path d="M0 0 C2.03548815 3.57795345 2.97449433 7.34552351 3.953125 11.30859375 C4.13369949 12.02260345 4.31427399 12.73661316 4.50032043 13.47225952 C4.88657472 15.00005745 5.27094323 16.52833315 5.65359497 18.05703735 C6.65758565 22.06431796 7.67757359 26.06750171 8.69921875 30.0703125 C8.89990463 30.85696793 9.10059052 31.64362335 9.30735779 32.45411682 C10.79728845 38.2687714 12.37737872 44.05114279 14.0625 49.8125 C16.40027755 57.83642574 18.64393246 65.88391206 20.82125854 73.95272827 C21.18691149 75.30460634 21.55480853 76.65587968 21.92507935 78.00650024 C22.44320976 79.89848587 22.95223935 81.79295654 23.4609375 83.6875 C23.90638916 85.33298828 23.90638916 85.33298828 24.36083984 87.01171875 C24.95428853 89.78628401 25.12902715 92.17581192 25 95 C19.60368998 90.49599322 14.5801873 85.73256402 9.625 80.75 C8.90183594 80.03070313 8.17867187 79.31140625 7.43359375 78.5703125 C6.74652344 77.88195312 6.05945313 77.19359375 5.3515625 76.484375 C4.73104004 75.86272461 4.11051758 75.24107422 3.47119141 74.60058594 C-0.40278917 70.38588022 0.61436703 64.41677978 0.4375 59 C0.3950415 57.75516846 0.35258301 56.51033691 0.30883789 55.2277832 C-0.26599809 36.8266776 -0.08603435 18.40737942 0 0 Z " fill="#97529B" transform="translate(79,123)"/>
<path d="M0 0 C1.04957086 3.14871257 0.99978151 3.86803614 0.21484375 6.9296875 C0.01697266 7.71408203 -0.18089844 8.49847656 -0.38476562 9.30664062 C-0.72024414 10.57797852 -0.72024414 10.57797852 -1.0625 11.875 C-1.29001953 12.76123047 -1.51753906 13.64746094 -1.75195312 14.56054688 C-3.6294585 21.79072341 -5.68192219 28.96782402 -7.76782227 36.14013672 C-9.71357823 42.87156875 -11.43723546 49.64066508 -13.09667969 56.44750977 C-14.88854593 63.7239006 -16.92683284 70.92025352 -19.03320312 78.11132812 C-20.1841947 82.0553926 -21.30049873 85.9445581 -22 90 C-22.33 90 -22.66 90 -23 90 C-23.16266869 81.53300762 -23.28680705 73.0666751 -23.3626852 64.59850311 C-23.39911599 60.66569061 -23.44847336 56.7339522 -23.52807617 52.80175781 C-23.60450919 49.00207577 -23.64606657 45.20342223 -23.6641407 41.4030304 C-23.67700904 39.95811277 -23.70213935 38.5132473 -23.7401104 37.06877136 C-24.06095332 24.34985483 -24.06095332 24.34985483 -19.71875 19.31640625 C-18.50691662 18.18058591 -17.26981634 17.07060471 -16 16 C-15.25306885 15.21560547 -14.5061377 14.43121094 -13.73657227 13.62304688 C-13.10291748 12.99462891 -12.4692627 12.36621094 -11.81640625 11.71875 C-11.11708984 11.02265625 -10.41777344 10.3265625 -9.69726562 9.609375 C-8.64055664 8.56523437 -8.64055664 8.56523437 -7.5625 7.5 C-6.83095703 6.77296875 -6.09941406 6.0459375 -5.34570312 5.296875 C-3.56610176 3.52890501 -1.78419082 1.76333622 0 0 Z " fill="#97529B" transform="translate(102,303)"/>
</svg>
